<svg version="1.1" xmlns="http://www.w3.org/2000/svg" viewBox="0 0 300 300" width="60" height="60">
  <!-- Dark background -->
  <path d="M0 0 C99 0 198 0 300 0 C300 99 300 198 300 300 C201 300 102 300 0 300 C0 201 0 102 0 0 Z" fill="#231F20"/>

  <!-- D right side -->
  <path d="M0 0 C7.92 0 15.84 0 24 0 C24 13.2 24 26.4 24 40 C37.63 39.77 37.63 39.77 50 36 C51.02 35.51 51.02 35.51 52.07 35.01 C60.56 30.33 66 22.07 69 13 C70.13 8.68 71.08 4.37 72 0 C80.25 0 88.5 0 97 0 C95.59 12.7 90.51 21.44 81 30 C67.27 39.91 51.31 43.37 34.64 43.2 C21.81 43.13 15.17 43.1 -1 43 C-0.67 28.81 -0.34 14.62 0 0 Z" fill="#F7F6F5" transform="translate(151,165)"/>

  <!-- D left side -->
  <path d="M0 0 C19.1 -0.05 34.96 -0.1 64.56 3.69 C72.44 6.62 77.26 9.22 82 13 C88.13 17.38 93.38 26 98 39 C89.75 39 81.5 39 73 39 C67.72 22.31 54.29 8.14 25 3 C25 14.88 25 26.76 25 39 C17.08 39 9.16 39 1 39 C0.67 26.13 0.34 13.26 0 0 Z" fill="#F5F4F3" transform="translate(150,94)"/>

  <!-- A left stroke -->
  <path d="M0 0 C21.78 0 43.56 0 66 0 C67.98 7.59 72 23 79 43 C69.43 43 59.86 43 50 43 C46.77 26.18 44.86 18.41 41 2 C28.46 2 15.92 2 3 2 C1.68 7.94 1 11 -1.56 21.44 C-3.45 29.08 -5 33 -5.72 40 C-6 42 -7 43 -12 43 C-10.54 36.32 -6.79 24.25 -4.31 16.2 C-2.18 8.16 0 0 0 0 Z" fill="#F5F4F3" transform="translate(61,165)"/>

  <!-- A right stroke -->
  <path d="M0 0 C9.24 0 18.48 0 28 0 C31.88 12.86 35.76 25.72 38 39 C29.75 39 21.5 39 13 39 C9.62 28.86 4 7 4 7 C1.59 13.95 -2.19 28.06 -5 39 C-8 39 -7.37 31.21 -3.17 16.82 C-0.75 7.93 0 0 0 0 Z" fill="#F5F4F3" transform="translate(79,94)"/>

  <!-- "WEB TECHNOLOGY" text in the middle gap between A and D -->
 <text
  x="150"
  y="151"
  font-family="Georgia, serif"
  font-size="14"
  fill="#c9a098"
  text-anchor="middle"
  letter-spacing="5"
>WEB TECHNOLOGY</text>
</svg>