<svg xmlns="http://www.w3.org/2000/svg" viewBox="0 0 50 50" width="100px" height="100px" baseProfile="basic"><path fill="#ffb300" d="M34.896 10.417C27.129 10.417 20.833 16.713 20.833 24.479S27.129 38.542 34.896 38.542 48.958 32.246 48.958 24.479 42.663 10.417 34.896 10.417m0 20.833a6.771 6.771 0 1 1 0 -13.542 6.771 6.771 0 0 1 0 13.542"/><path fill="#ffb300" d="M19.938 29.22v-0.003A6.75 6.75 0 0 1 15.104 31.25a6.771 6.771 0 1 1 0 -13.542c1.906 0 3.626 0.791 4.856 2.058l3.906 -6.275A14 14 0 0 0 15.104 10.417C7.338 10.417 1.042 16.713 1.042 24.479S7.338 38.542 15.104 38.542c3.296 0 6.32 -1.143 8.718 -3.041z"/><path fill="#f57c00" d="M8.333 24.479a6.75 6.75 0 0 1 1.968 -4.771l-5.057 -5.248A14.01 14.01 0 0 0 1.042 24.479c0 3.905 1.594 7.438 4.165 9.985l5.14 -5.171A6.75 6.75 0 0 1 8.333 24.479"/><path fill="#f57c00" d="M39.719 19.73A6.771 6.771 0 0 1 34.896 31.25a6.75 6.75 0 0 1 -4.849 -2.05l-5.207 5.099A14.01 14.01 0 0 0 34.896 38.542C42.663 38.542 48.958 32.246 48.958 24.479c0 -3.838 -1.541 -7.311 -4.032 -9.849z"/></svg>