<svg xmlns="http://www.w3.org/2000/svg" shape-rendering="geometricPrecision" text-rendering="geometricPrecision" image-rendering="optimizeQuality" fill-rule="evenodd" clip-rule="evenodd" viewBox="0 0 100 148.081" width="100" height="148.081"><g fill-rule="nonzero"><path fill="#00B6FF" d="M49.864 71.358c0 -12.15 9.853 -21.997 22 -21.997h3.182c0.087 0.003 0.182 -0.003 0.272 -0.003 13.63 0 24.682 11.055 24.682 24.682s-11.052 24.679 -24.682 24.679c-0.09 0 -0.185 -0.003 -0.275 -0.003l-3.179 0.003c-12.147 0 -22 -9.853 -22 -22z"/><path fill="#24CB71" d="M0 123.405c0 -13.63 11.052 -24.685 24.682 -24.685l25.182 0.003v24.428c0 13.772 -11.289 24.931 -25.061 24.931C11.176 148.081 0 137.032 0 123.405"/><path fill="#FF7237" d="M49.864 0.003v49.358h25.182c0.087 -0.003 0.182 0.003 0.272 0.003 13.63 0 24.682 -11.055 24.682 -24.682C100 11.052 88.948 0 75.318 0c-0.09 0 -0.185 0.003 -0.275 0.003z"/><path fill="#FF3737" d="M0 24.679c0 13.63 11.052 24.682 24.682 24.682h25.182V0.003H24.679C11.052 0.003 0 11.052 0 24.679"/><path fill="#874FFF" d="M0 74.04c0 13.63 11.052 24.682 24.682 24.682h25.182V49.364H24.679C11.052 49.364 0 60.413 0 74.04"/></g></svg>