<?xml version="1.0" encoding="UTF-8"?>
<svg version="1.1" viewBox="0 0 1200 1200" width="100" height="100" xmlns="http://www.w3.org/2000/svg">
<path transform="translate(1190,6)" d="m0 0h3l-1 500v684l-6-4-116-116-7-8-17-16-36-36v-2l-4-2-8-8v-2l-4-2v-2l-4-2-92-92-4 1-10 8-285 285-7-6-8-8-7-8-22-22-3-2v-2l-4-2v-2l-4-2-4-4v-2l-4-2v-2l-4-2v-2l-4-2v-2l-4-2v-2l-4-2-7-8-194-194-8-7-8-8-4 2-10 9-280 280-3 1-1-1v-1179h3l17 17 2 1v2l4 2 6 6v2h2l7 8 531 531 7 6v2l4 2 9 9 4-1 12-11 528-528 5-6 4-4h2l2-4 12-12h2l2-4 15-15z" fill="#6102FB"/>
<path transform="translate(8,13)" d="m0 0 6 2 11 11 2 1v2l4 2 6 6v2h2l7 8 534 534 3 5 7 6v2h2l4 6-4 6-10 10-8 7-12 11-215 215-7 8-13 12-29 29-8 6-36 36h-2v2h-2v2l-8 7-5 6-3 3h-2l-2 4-53 53-10 9-7 8-131 131-7 8-10 9-4 2-1-2v-464l-1-637v-66h2z" fill="#E500B0"/>
<path transform="translate(1189,600)" d="m0 0 2 1 1 589-6-4-116-116-7-8-17-16-36-36v-2l-4-2-8-8v-2l-4-2v-2l-4-2-94-94 2-4 62-62 7-8 12-11 179-179 8-7 9-9 9-12z" fill="#0574FC"/>
<path transform="translate(1190,6)" d="m0 0h3l-1 500h-1l-1-272-1-44-2-1-2-5-3 3-2 11-3 3h2l-1 2h-2l-2 2-2-1v-4l-2-1 3-1-2-1-2-4h-2v4l-6 8-3 3-4 2h-1l-1 3-1-1-2 5-6-2-3 1-1 2v-3l-3 1v-2h-2l-1 2h-5v2l-5 2-2 5 1 3h-4-3l-1 8-6 1-1 2-3-1-5 3-4-1-1 2-2 1 1 5-5 4 1-4-2-2-4 1-2 3h-7-4v-2l-4 2-3-2 1-2-5 3-6 1h-2l-10 3-7-1-2 1-1 5-8 1-3 3-1-2-4-1-1 3-3 3-5-2h-3l-2 3h-5l-3-2h-5l-2-1-5 5-3 2-2-1-5 2v6l-5-1-1 4-7 4-8 3-4 7-2 5-8 2-5 2-6-1v6l-5-1v-8l-6 1v2l-4-1-2-3 4-1 1-4 3 1v-4h2l1-2h1l2-4 4 1v-3l5-2v-7l4-1v-3l5-5 3-4h2v-2h2v-2l8-7h2v-2h2v-2h2l2-4 2-3-2-1 6-5 2 1 1-5h3l1-4 2 2 7-7h2v-2h2l2-4h2l2-4 3-4 1-4 5-5h2l2-4 8-8h2l2-4 10-10 3-5 108-108 5-6 4-4h2l2-4 12-12h2l2-4 15-15z" fill="#860BF7"/>
<path transform="translate(7,886)" d="m0 0h1l1 140 1 30v63l1 4-1 7h2l2 4 5-5 2-6h3v-13l2-2 3-11v-10l2-3v-18h2l-1-7 2-10h2l1-6 1-3h3l2-5 4-1 2-8 3-1 4 4 4-7h8l4 5-1-4 3 1v-2l-3-1v-2l9-1 2-6 6-1v-2l6-1h2v2l6-1-1-3 3-1v2h2v-2l3-1 2 1 1-2 4-1h3v3l3-3 4 1 1-3 5 1 3-2 3 2 3-1 6 2 9-2 5-1h2l3-2 5 4-2 5-5 3-3-3-4 1v2l-6 2v2l11-5 1 4-1 2h-2v3h-2v3h-2l-2 6v1l13-12 3-7 2-3h2v-2l5-2v-4l6 1 6-5h2v-2h3l1-2 7-1v-2h2v-3l6-5h2v-2l5-2-6 7-36 36-10 9-7 8-131 131-7 8-10 9-4 2-1-2z" fill="#D900D4"/>
<path transform="translate(593,600)" d="m0 0h2l-2 5-11 11-8 7-12 11-215 215-7 8-13 12-29 29-8 6-36 36h-2v2h-2v2l-8 7-5 6-3 3h-2l-2 4-10 10v-3-2h2l1-3 1-2h2l2-4h2l2-4 1-3-2-1v3h-2l-1 3-6 3-3 4h-2v2l-8 7-5 3-2 4-11 9h-2v2l-5 2-1 3-2-2h2v-2l-3 1v-2l-3 1 2-7 3-4 2-8v-2h2v-3l5-2 2-4-4-3 1-4h2v-2h2l-1-6-4-1h2l1-3 7-2v-2l7-1 4-2 2-5h3l1 3-3 9h5v-2l3-2 9-3 5-1 2 1v2l7-1-1-4-4-1-2-4v-4h2l1-5 1-4 4-1 4-4 2-5 3-1h4l2-2 5-2 7-8 6-4 5-1-1-4 4-2v-3l8-4h2l2-3h2v-2l8-3 2-1 1-1 2 1v4l-5 2 1 4-6 3-1 2h-2v2h-2v4l5-4 4-5 5-2v-2l3-1 5-6 5-5 7-8h2v-2l3-3h2l2-4 7-6h2l1-4 5-3 8-10 7-8 10-7 5-5 6-7h2l2-4 5-4 2-4h3l2-4 10-10 10-9 4-5h2v-2h2v-2l11-9 7-8 9-8h2l2-4 5-5 4-5h2v-2h2v-2l5-2 1-2 5-5 6-7h2l2-4 14-11 4-5h2l2-4h2v-2l7-6 1-2h2v-2h2v-2l8-7 10-10h2l2-4 8-8h2l2-4 11-9 6-7 4-1z" fill="#D900D4"/>
<path transform="translate(6,8)" d="m0 0 7 6h-3l-2-1v2h-2l1 66 1 655v446h2l11-9 16-17 128-128 6-7 5-4 4-5 8-7 43-43 1-2h2l1-3 13-13h2v-2h2v-2h2l1-3 8-7 30-30 8-6 34-34 8-7 11-12 49-49h2l2-4 163-163 8-7 12-11 4-5 1-3-3-3v-2h-2l-10-10v-2l4 2v2l4 2 9 9 2 1-1 5-14 14-8 7-9 9-8 7-22 22-6 7-8 7-8 9-7 6-5 6-8 7-33 33h-2l-2 4h-2l-2 4-16 16-6 5-5 5-4 5-34 34h-2l-2 4-18 18-7 6-7 8-30 30h-2l-2 4-10 9-11 11-8 7-281 281-3 1-1-1v-1179z" fill="#860BF7"/>
<path transform="translate(593,600)" d="m0 0h2l-2 5-11 11-8 7-12 11-215 215-7 8-13 12-29 29-6 3h-3v-2h2l2-4 7-10 5-5 5-4h2v-2l3-1 5-6 5-5 7-8h2v-2l3-3h2l2-4 7-6h2l1-4 5-3 8-10 7-8 10-7 5-5 6-7h2l2-4 5-4 2-4h3l2-4 10-10 10-9 4-5h2v-2h2v-2l11-9 7-8 9-8h2l2-4 5-5 4-5h2v-2h2v-2l5-2 1-2 5-5 6-7h2l2-4 14-11 4-5h2l2-4h2v-2l7-6 1-2h2v-2h2v-2l8-7 10-10h2l2-4 8-8h2l2-4 11-9 6-7 4-1z" fill="#D900D5"/>
<path transform="translate(6,8)" d="m0 0 7 6h-3l-2-1v2h-2v1167h-1v-1173z" fill="#6102FC"/>
<path transform="translate(580,582)" d="m0 0 4 2v2l4 2 9 9 2 1-1 5-14 14-8 7-9 9-8 7-22 22-6 7-8 7-8 9-7 6-5 6-8 7-33 33h-2l-2 4h-2l-2 4-16 16-6 5-5 5-4 5-34 34h-2l-2 4-18 18-7 6-7 8-30 30h-2l-2 4-10 9-11 11-2-2 8-7 31-31 8-7 11-12 49-49h2l2-4 163-163 8-7 12-11 4-5 1-3-3-3v-2h-2l-10-10z" fill="#870CF7"/>
<path transform="translate(295,899)" d="m0 0 2 1-287 287-2-1 7-8 10-9 11-12 129-129 6-7 5-4 4-5 8-7 43-43 1-2h2l1-3 13-13h2v-2h2v-2h2l1-3 8-7 30-30z" fill="#7707F9"/>
<path transform="translate(289,896)" d="m0 0 3 1-1 2 1 1-2 4-18 18-6 2-2 4h-2l-1 3-7 4v2l-8 4v-2h2l-1-4h2v-2l-2-1 3-1 2-4 4-1v-2h2v-2h2v-2h2l2-4 4-5v-3l5-1v-2h2l2-4 5-2 4-1z" fill="#E400B2"/>
<path transform="translate(34,1148)" d="m0 0v3l2 5-4 6-12 13-11 9-2-2v-24l1-3h3l1 4 11 1 5-5z" fill="#E400B3"/>
<path transform="translate(1190,6)" d="m0 0h3v15h-3l-2-1v2l-4-2-1-2-62 62-2-1 22-22 5-6 4-4h2l2-4 12-12h2l2-4 15-15z" fill="#7607F9"/>
<path transform="translate(97,1096)" d="m0 0 3 1-90 90-2-1 7-8 10-9 11-12 14-14z" fill="#7A08F8"/>
<path transform="translate(180,1012)" d="m0 0 2 1-2 4-79 79-3-1 67-67 6-7 5-4z" fill="#810AF7"/>
<path transform="translate(232,960)" d="m0 0h3l-2 4-50 50-2-1 7-8 43-43z" fill="#7B08F8"/>
<path transform="translate(1190,6)" d="m0 0h3v15h-3l-2-1v2l-4-2-1-3-4 4-2-1 8-8z" fill="#6402FB"/>
<path transform="translate(45,1148)" d="m0 0h2l-2 4-35 35-2-1 7-8 10-9 11-12z" fill="#7A08F8"/>
<path transform="translate(998,203)" d="m0 0 1 2-6 8-4 4h-2v2l-8 7-2 1-1-4 16-16 4-2z" fill="#6102FC"/>
<path transform="translate(180,1012)" d="m0 0 2 1-2 4-27 27-1-3 13-13 6-7 5-4z" fill="#7D09F8"/>
<path transform="translate(963,238)" d="m0 0h2l-2 4-2 3h-2v2h-2v2l-8 7h-2v2h-2l-1-3 12-12 4-2z" fill="#6102FB"/>
<path transform="translate(255,937)" d="m0 0 2 1-3 5-18 18-2-1 1-3 13-13h2v-2h2v-2h2z" fill="#7D09F8"/>
<path transform="translate(6,8)" d="m0 0 7 6h-3l-2-1v2h-2v40h-1v-46z" fill="#820AF7"/>
<path transform="translate(201,992)" d="m0 0h2l-2 4-18 18-2-1 7-8z" fill="#6D05FA"/>
<path transform="translate(97,1096)" d="m0 0 3 1-20 20-1-3z" fill="#6D05FA"/>
<path transform="translate(27,1167)" d="m0 0 2 1-7 8-8 7-4 4-2-1 7-8 10-9z" fill="#7507F9"/>
<path transform="translate(165,1028)" d="m0 0h2l-2 4-12 12-1-3z" fill="#7908F8"/>
<path transform="translate(1148,219)" d="m0 0h5l-1 5-2-1-3 6h-2l-1-4 2-5z" fill="#860BF7"/>
<path transform="translate(232,960)" d="m0 0h3l-2 4-10 10-1-3 9-9z" fill="#6F05FA"/>
<path transform="translate(1e3 250)" d="m0 0h3v6l-4 1v-2l-3-1z" fill="#6202FB"/>
<path transform="translate(1191,1176)" d="m0 0h1v14l-6-4-1-2 5 2z" fill="#6102FC"/>
<path transform="translate(148,996)" d="m0 0 5 1v2l-8 2-3-2 1-1h5z" fill="#D900D5"/>
</svg>
