<svg width="50" height="50" viewBox="0 0 50 50" fill="none" xmlns="http://www.w3.org/2000/svg"><g id="github"><g id="github_2"><path id="Vector" d="M25 0.5C11.195 0.5 0 11.693 0 25.5c0 11.046 7.163 20.418 17.096 23.723 1.25 0.232 1.708 -0.542 1.708 -1.202 0 -0.596 -0.023 -2.566 -0.034 -4.655 -6.955 1.512 -8.423 -2.95 -8.423 -2.95 -1.137 -2.89 -2.776 -3.658 -2.776 -3.658 -2.268 -1.552 0.171 -1.52 0.171 -1.52 2.51 0.176 3.833 2.576 3.833 2.576 2.23 3.822 5.848 2.717 7.275 2.079 0.225 -1.616 0.873 -2.719 1.587 -3.343 -5.553 -0.632 -11.39 -2.776 -11.39 -12.355 0 -2.73 0.977 -4.96 2.575 -6.71 -0.26 -0.63 -1.115 -3.172 0.242 -6.616 0 0 2.099 -0.672 6.877 2.563 1.994 -0.554 4.133 -0.832 6.258 -0.841 2.125 0.009 4.265 0.287 6.263 0.841 4.771 -3.235 6.868 -2.563 6.868 -2.563 1.361 3.443 0.505 5.986 0.245 6.616 1.603 1.75 2.573 3.981 2.573 6.71 0 9.602 -5.848 11.716 -11.415 12.335 0.896 0.776 1.695 2.298 1.695 4.63 0 3.345 -0.029 6.037 -0.029 6.861 0 0.665 0.45 1.445 1.717 1.199C42.846 45.91 50 36.542 50 25.5c0 -13.807 -11.193 -25 -25 -25" fill="white"/><path id="Vector_2" d="M9.363 36.114c-0.055 0.124 -0.25 0.162 -0.428 0.076 -0.181 -0.082 -0.283 -0.251 -0.225 -0.376 0.054 -0.128 0.25 -0.164 0.431 -0.077 0.181 0.082 0.285 0.253 0.222 0.377m1.23 1.097c-0.119 0.111 -0.352 0.059 -0.51 -0.115 -0.164 -0.175 -0.194 -0.407 -0.073 -0.52 0.122 -0.11 0.349 -0.059 0.512 0.116 0.164 0.176 0.195 0.407 0.071 0.519m0.844 1.404c-0.153 0.106 -0.404 0.007 -0.558 -0.215 -0.153 -0.223 -0.153 -0.489 0.004 -0.596 0.155 -0.106 0.402 -0.011 0.558 0.21 0.153 0.226 0.153 0.493 -0.004 0.602m1.427 1.626c-0.138 0.151 -0.429 0.111 -0.642 -0.096 -0.218 -0.202 -0.28 -0.487 -0.142 -0.639 0.139 -0.151 0.432 -0.108 0.647 0.096 0.217 0.201 0.283 0.489 0.138 0.638m1.843 0.549c-0.06 0.196 -0.341 0.285 -0.625 0.202 -0.282 -0.086 -0.468 -0.315 -0.41 -0.512 0.059 -0.198 0.341 -0.29 0.626 -0.201 0.282 0.085 0.468 0.313 0.409 0.512m2.099 0.233c0.007 0.206 -0.234 0.377 -0.53 0.381 -0.299 0.006 -0.541 -0.161 -0.544 -0.363 0 -0.208 0.235 -0.378 0.533 -0.383 0.297 -0.005 0.541 0.16 0.541 0.365m2.062 -0.079c0.035 0.201 -0.171 0.407 -0.466 0.463 -0.29 0.053 -0.559 -0.071 -0.596 -0.271 -0.036 -0.206 0.174 -0.413 0.464 -0.467 0.295 -0.051 0.56 0.07 0.598 0.275" fill="white"/></g></g></svg>