<svg width="100px" height="100px" viewBox="-2.75 0 37.5 37.5" version="1.1" xmlns="http://www.w3.org/2000/svg" xmlns:xlink="http://www.w3.org/1999/xlink" preserveAspectRatio="xMidYMid"><g><path d="M1.323 19.551v-4.094h0.892v4.407a2.663 2.663 0 0 1 -0.586 1.997A2.275 2.275 0 0 1 0.111 22.414l-0.093 -0.666a1.45 1.45 0 0 0 0.972 -0.373c0.24 -0.28 0.333 -0.659 0.333 -1.824m6.652 -0.525c0 0.499 0 0.945 0.04 1.331h-0.792l-0.053 -0.792a1.844 1.844 0 0 1 -1.618 0.905c-0.772 0 -1.691 -0.419 -1.691 -2.13v-2.842h0.892v2.663c0 0.925 0.286 1.544 1.092 1.544a1.245 1.245 0 0 0 1.258 -1.258v-2.982h0.892v3.535zm1.691 -1.944c0 -0.619 0 -1.125 -0.04 -1.584h0.799l0.04 0.832a1.931 1.931 0 0 1 1.744 -0.945c1.185 0 2.077 0.992 2.077 2.47 0 1.744 -1.072 2.61 -2.23 2.61a1.725 1.725 0 0 1 -1.511 -0.766v2.663h-0.879v-5.279m0.879 1.298c0.002 0.121 0.016 0.241 0.04 0.359a1.371 1.371 0 0 0 1.331 1.032c0.939 0 1.491 -0.765 1.491 -1.877 0 -0.972 -0.519 -1.804 -1.458 -1.804a1.531 1.531 0 0 0 -1.405 1.458zm5.33 -2.887 1.072 2.869a16.625 16.625 0 0 1 0.313 0.992c0.093 -0.293 0.193 -0.666 0.313 -1.012l0.972 -2.849h0.939l-1.331 3.462c-0.666 1.664 -1.072 2.523 -1.684 3.042a2.425 2.425 0 0 1 -1.092 0.573l-0.22 -0.746a2.362 2.362 0 0 0 0.779 -0.433 2.663 2.663 0 0 0 0.752 -0.985c0.036 -0.066 0.061 -0.138 0.073 -0.213a0.762 0.762 0 0 0 -0.06 -0.233l-1.811 -4.48h0.972zm5.976 -1.397v1.398h1.278v0.666h-1.278v2.623c0 0.599 0.173 0.945 0.666 0.945 0.175 0.003 0.349 -0.017 0.519 -0.06l0.04 0.666a2.2 2.2 0 0 1 -0.792 0.12 1.238 1.238 0 0 1 -0.965 -0.373 1.791 1.791 0 0 1 -0.346 -1.265v-2.663h-0.759V15.488h0.772v-1.185zm2.921 3.985a1.565 1.565 0 0 0 1.684 1.684 3.25 3.25 0 0 0 1.331 -0.253l0.153 0.666a3.994 3.994 0 0 1 -1.631 0.299 2.263 2.263 0 0 1 -2.41 -2.45c0 -1.464 0.872 -2.623 2.297 -2.623 1.598 0 1.997 1.398 1.997 2.29q0.013 0.206 0 0.413h-3.442zm2.61 -0.666a1.258 1.258 0 0 0 -1.238 -1.438 1.471 1.471 0 0 0 -1.365 1.438zm2.166 -0.409c0 -0.573 0 -1.065 -0.04 -1.518h0.799v0.952h0.04a1.471 1.471 0 0 1 1.331 -1.065 0.975 0.975 0 0 1 0.253 0v0.832a1.337 1.337 0 0 0 -0.306 0 1.245 1.245 0 0 0 -1.192 1.132c-0.025 0.136 -0.038 0.274 -0.04 0.413v2.59h-0.879v-3.328z" fill="#4E4E4E"/><path d="M29.157 2.12a2.257 2.257 0 1 1 -2.35 -2.117 2.23 2.23 0 0 1 2.35 2.117" fill="#767677"/><path d="M15.994 28.193c-5.991 0 -11.257 -2.15 -13.979 -5.325a14.905 14.905 0 0 0 27.959 0c-2.716 3.175 -7.962 5.325 -13.979 5.325" fill="#F37726"/><path d="M15.994 7.544c5.991 0 11.257 2.15 13.979 5.325a14.905 14.905 0 0 0 -13.979 -9.735 14.905 14.905 0 0 0 -13.979 9.735c2.723 -3.182 7.962 -5.325 13.979 -5.325" fill="#F37726"/><path d="M7.747 34.372a2.842 2.842 0 1 1 -2.962 -2.663 2.816 2.816 0 0 1 2.962 2.663" fill="#9E9E9E"/><path d="M2.696 6.821a1.638 1.638 0 1 1 1.591 -1.704 1.657 1.657 0 0 1 -1.591 1.704" fill="#616262"/></g></svg>