<svg width="100" height="100" viewBox="0 0 310 310" xmlns="http://www.w3.org/2000/svg">
  <rect width="310" height="310" fill="#000000"/>

  <!-- Top-left diagonal sweep -->
  <path d="M112.339 193.457C125.901 179.895 133.524 161.481 133.524 142.303C133.524 123.125 125.894 104.71 112.339 91.1481L61.1855 40C47.6302 53.5622 40 71.9766 40 91.1547C40 110.333 47.6302 128.747 61.1855 142.309L112.332 193.457H112.339Z" fill="#7FC8FF"/>

  <!-- Bottom horizontal arc -->
  <path d="M219.382 198.19C205.827 184.634 187.406 177.004 168.235 177.004C149.064 177.004 130.644 184.634 117.082 198.19L168.235 249.345C181.791 262.9 200.211 270.531 219.388 270.531C238.566 270.531 256.98 262.9 270.542 249.345L219.388 198.19H219.382Z" fill="#7FC8FF"/>

  <!-- Bottom-left quarter block -->
  <path d="M61.319 249.23C74.8808 262.786 93.2947 270.416 112.472 270.416V198.075H40.127C40.1335 217.253 47.7571 235.668 61.319 249.23Z" fill="#7FC8FF"/>

  <!-- Top-right diagonal sweep -->
  <path d="M239.118 122.563C225.556 109.007 207.142 101.37 187.958 101.377C168.78 101.377 150.367 109.007 136.805 122.57L187.958 173.724L239.118 122.563Z" fill="#7FC8FF"/>
</svg>