<svg xmlns="http://www.w3.org/2000/svg" x="0px" y="0px" width="50" height="50" viewBox="0 0 24 24"><path fill="#0078d4" d="M21 18.5a2.5 2.5 0 0 1 -2.5 2.5H5.5a2.5 2.5 0 0 1 -2.5 -2.5V5.5a2.5 2.5 0 0 1 2.5 -2.5h13a2.5 2.5 0 0 1 2.5 2.5z"/><path d="M15 18.5V13.45c0 -0.845 -0.409 -1.349 -1.096 -1.349 -0.407 0 -0.707 0.23 -0.889 0.682 -0.009 0.032 -0.021 0.163 -0.015 0.557L13 18.5h-3.5V9h3.5v0.53C13.511 9.178 14.137 9 14.869 9c2.273 0 3.631 1.546 3.631 4.137L18.5 18.5zm-9.5 0V9h1.728C6.227 9 5.5 8.264 5.5 7.25 5.5 6.236 6.239 5.5 7.257 5.5c1.006 0 1.722 0.716 1.743 1.74C9 8.261 8.261 9 7.242 9H9v9.5z" opacity=".05"/><path d="M15.25 18.25v-4.8c0 -0.987 -0.515 -1.599 -1.346 -1.599 -0.647 0 -0.968 0.456 -1.121 0.839 -0.041 0.1 -0.035 0.494 -0.034 0.663L12.75 18.25h-3v-9h3v0.819c0.398 -0.411 1.038 -0.819 2.119 -0.819 2.116 0 3.381 1.453 3.381 3.887L18.25 18.25zm-9.5 0v-9h3v9zm1.478 -9.5c-0.857 0 -1.478 -0.631 -1.478 -1.5s0.634 -1.5 1.507 -1.5c0.862 0 1.476 0.615 1.493 1.494 0 0.875 -0.634 1.506 -1.508 1.506z" opacity=".07"/><path fill="#fff" d="M6 9.5h2.5v8.5h-2.5zm1.242 -1h-0.014C6.482 8.5 6 7.944 6 7.25 6 6.54 6.497 6 7.257 6c0.76 0 1.229 0.54 1.243 1.25C8.5 7.944 8.018 8.5 7.242 8.5M18 18h-2.5v-4.55c0 -1.099 -0.613 -1.849 -1.596 -1.849 -0.75 0 -1.157 0.506 -1.353 0.995 -0.072 0.175 -0.051 0.659 -0.051 0.903v4.5h-2.5V9.5h2.5v1.308C12.861 10.25 13.425 9.5 14.869 9.5c1.789 0 3.131 1.125 3.131 3.637z"/></svg>