<svg xmlns="http://www.w3.org/2000/svg" viewBox="0 0 100 100" width="100" height="100"><path fill="#fff" d="M49.98 97.727c-12.748 0 -24.733 -4.965 -33.748 -13.979S2.254 62.748 2.254 50 7.219 25.266 16.233 16.252 37.232 2.273 49.98 2.273s24.734 4.965 33.748 13.979S97.707 37.252 97.707 50s-4.965 24.734 -13.979 33.748 -20.999 13.978 -33.748 13.978"/><path fill="none" stroke="#858585" stroke-dasharray=".407,.8139" stroke-linecap="round" stroke-linejoin="round" stroke-miterlimit="7.976" stroke-width="0.66875" d="M49.98 49.831h47.727m-47.727 0 33.748 -33.747M49.98 49.831V2.105m0 47.727L16.233 16.084m33.747 33.747H2.253m47.727 0 -33.747 33.748m33.747 -33.748v47.727m0 -47.727 33.748 33.748" opacity=".9"/><g fill="none" stroke="#818181" stroke-dasharray=".407,.8139" stroke-linecap="square" stroke-linejoin="round" stroke-miterlimit="199.409" stroke-width=".856"><path d="m55.284 49.831 -0.158 -1.284 -0.463 -1.205 -0.741 -1.059 -0.977 -0.848 -1.152 -0.587 -1.258 -0.291 -1.292 0.023 -1.249 0.335 -1.13 0.626 -0.945 0.881 -0.703 1.084 -0.421 1.223 -0.113 1.288 0.202 1.277 0.505 1.19 0.777 1.032 1.005 0.813 1.172 0.545 1.268 0.247 1.291 -0.067 1.236 -0.378 1.108 -0.666 0.914 -0.914 0.665 -1.107 0.378 -1.236 0.082 -0.923h0" opacity=".9"/><path d="m65.89 49.831 -0.155 -2.213 -0.461 -2.171 -0.76 -2.085 -1.041 -1.96 -1.305 -1.796 -1.541 -1.597 -1.748 -1.367 -1.923 -1.109 -2.057 -0.831 -2.155 -0.537 -2.207 -0.232 -2.219 0.077 -2.185 0.386 -2.111 0.685 -1.995 0.973 -1.841 1.241 -1.649 1.485 -1.427 1.701 -1.177 1.881 -0.902 2.028 -0.611 2.133 -0.309 2.198v2.22l0.309 2.198 0.611 2.133 0.902 2.028 1.177 1.881 1.427 1.701 1.649 1.486 1.841 1.241 1.995 0.973 2.111 0.685 2.186 0.386 2.219 0.078 2.206 -0.233 2.155 -0.537 2.057 -0.832 1.923 -1.109 1.748 -1.367 1.541 -1.597 1.305 -1.796 1.041 -1.961 0.759 -2.084 0.462 -2.171 0.155 -2.211h0" opacity=".9"/><path d="m76.495 49.831 -0.145 -2.772 -0.434 -2.741 -0.719 -2.68 -0.994 -2.591 -1.26 -2.473 -1.512 -2.327 -1.747 -2.158 -1.962 -1.962 -2.157 -1.747 -2.327 -1.512 -2.473 -1.26 -2.591 -0.995 -2.68 -0.718 -2.742 -0.434 -2.772 -0.145 -2.772 0.145 -2.741 0.434 -2.68 0.719 -2.592 0.994 -2.473 1.26 -2.327 1.512 -2.157 1.747 -1.962 1.962 -1.747 2.158 -1.512 2.327 -1.26 2.473 -0.995 2.591 -0.718 2.68 -0.434 2.741 -0.145 2.772 0.145 2.772 0.434 2.741 0.719 2.68 0.994 2.591 1.26 2.473 1.512 2.327 1.747 2.158 1.962 1.962 2.157 1.747 2.327 1.512 2.473 1.261 2.591 0.994 2.68 0.719 2.742 0.434 2.771 0.145 2.773 -0.145 2.741 -0.434 2.68 -0.718 2.592 -0.994 2.473 -1.261 2.327 -1.512 2.157 -1.747 1.962 -1.962 1.747 -2.158 1.512 -2.327 1.26 -2.473 0.994 -2.591 0.719 -2.68 0.434 -2.741 0.145 -2.772h0" opacity=".9"/><path d="m87.101 49.831 -0.203 -3.88 -0.609 -3.837 -1.005 -3.753 -1.392 -3.627 -1.763 -3.463 -2.116 -3.259 -2.445 -3.02 -2.747 -2.748 -3.02 -2.445 -3.259 -2.116L65.078 15.922l-3.627 -1.391 -3.753 -1.005 -3.837 -0.609 -3.88 -0.203 -3.88 0.203 -3.836 0.609 -3.754 1.005 -3.627 1.391 -3.463 1.763 -3.258 2.117 -3.021 2.445 -2.748 2.747 -2.445 3.02 -2.116 3.258 -1.763 3.463 -1.392 3.627 -1.005 3.753 -0.608 3.837 -0.204 3.88 0.203 3.88 0.609 3.837 1.005 3.754 1.392 3.627 1.763 3.462 2.116 3.259 2.445 3.02 2.747 2.748 3.02 2.445 3.259 2.116 3.463 1.763 3.627 1.391 3.753 1.006 3.837 0.608 3.88 0.203 3.88 -0.203 3.837 -0.608 3.753 -1.006 3.627 -1.391 3.463 -1.763 3.258 -2.117 3.021 -2.445 2.747 -2.748 2.445 -3.02 2.117 -3.258 1.762 -3.463 1.392 -3.627 1.005 -3.754 0.608 -3.836 0.204 -3.88h0" opacity=".9"/></g><path fill="#11557c" d="M50 98.438c-12.937 0 -25.102 -5.038 -34.25 -14.187S1.563 62.938 1.563 50s5.038 -25.102 14.187 -34.251S37.062 1.563 50 1.563s25.102 5.038 34.251 14.187S98.438 37.062 98.438 50s-5.038 25.102 -14.187 34.251S62.938 98.438 50 98.438M50 2.984c-12.558 0 -24.365 4.891 -33.245 13.77C7.875 25.635 2.984 37.441 2.984 50s4.891 24.366 13.77 33.245S37.441 97.016 50 97.016s24.366 -4.891 33.245 -13.77S97.016 62.559 97.016 50s-4.891 -24.365 -13.77 -33.245C74.365 7.875 62.559 2.984 50 2.984"/><path fill="#004cff" d="m49.98 49.831 0.101 -0.033 0.101 -0.033 0.101 -0.033 0.101 -0.033 0.101 -0.033 0.101 -0.033 0.101 -0.033 0.101 -0.033 0.101 -0.033 0.101 -0.033 0.101 -0.033 0.101 -0.033 0.101 -0.033 0.101 -0.033 0.101 -0.033 0.101 -0.033 0.101 -0.033 0.101 -0.033 0.101 -0.033 0.101 -0.033 0.101 -0.033 0.101 -0.033 0.101 -0.033 0.101 -0.033 0.101 -0.033 0.101 -0.033 0.101 -0.033 0.101 -0.033 0.101 -0.033 0.101 -0.033 0.101 -0.033 0.101 -0.033 0.101 -0.033 0.101 -0.033 0.101 -0.033 0.101 -0.033 0.101 -0.033 0.101 -0.033 0.101 -0.033 0.101 -0.033 0.101 -0.033 0.101 -0.033 0.101 -0.033 0.101 -0.033 0.101 -0.033 0.101 -0.033 0.101 -0.033 0.101 -0.033 0.101 -0.033 0.101 -0.033 0.101 -0.033 0.101 -0.033 0.101 -0.033 0.101 -0.033 0.101 -0.033 0.101 -0.033 0.101 -0.033 0.101 -0.033 0.101 -0.033 0.101 -0.033 0.101 -0.033 0.101 -0.033 0.101 -0.033 0.101 -0.033 0.101 -0.033 0.101 -0.033 0.101 -0.033 0.101 -0.033 0.101 -0.033 0.101 -0.033 0.101 -0.033 0.101 -0.033 0.101 -0.033 0.101 -0.033 0.101 -0.033 0.101 -0.033 0.101 -0.033 0.101 -0.033 0.101 -0.033 0.101 -0.033 0.101 -0.033 0.101 -0.033 0.101 -0.033 0.101 -0.033 0.101 -0.033 0.101 -0.033 0.101 -0.033 0.101 -0.033 0.101 -0.033 0.101 -0.033 0.101 -0.033 0.101 -0.033 0.101 -0.033 0.101 -0.033 0.101 -0.033 0.101 -0.033 0.101 -0.033 0.101 -0.033 0.101 -0.033 0.101 -0.033 0.02 0.036 0.01 0.032 0.01 0.032 0.01 0.032 0.01 0.032 0.01 0.032 0.009 0.032 0.009 0.032 0.009 0.03 0.009 0.032 0.009 0.032 0.009 0.032 0.009 0.032 0.009 0.032 0.009 0.032 0.009 0.032 0.009 0.032 0.009 0.032 0.009 0.032 0.009 0.032 0.009 0.032 0.008 0.032 0.008 0.032 0.008 0.032 0.008 0.032 0.008 0.032 0.008 0.033 0.008 0.033 0.007 0.033 0.007 0.033 0.007 0.033 0.007 0.033 0.007 0.033 0.007 0.033 0.007 0.033 0.007 0.033 0.007 0.033 0.006 0.033 0.006 0.033 0.006 0.033 0.006 0.033 0.006 0.033 0.006 0.033 0.005 0.033 0.005 0.033 0.005 0.033 0.005 0.033 0.005 0.033 0.005 0.033 0.005 0.033 0.005 0.033 0.005 0.033 0.005 0.033 0.005 0.033 0.005 0.033 0.005 0.033 0.005 0.033 0.005 0.033 0.005 0.033 0.004 0.033 0.004 0.033 0.004 0.033 0.004 0.033 0.004 0.033 0.004 0.033 0.004 0.033 0.004 0.033 0.003 0.033 0.003 0.033 0.003 0.033 0.003 0.033 0.003 0.033 0.003 0.033 0.003 0.034 0.002 0.034 0.002 0.034 0.002 0.034 0.002 0.034 0.002 0.034 0.002 0.034 0.002 0.034 0.002 0.034 0.002 0.034 0.002 0.034 0.002 0.034 0.002 0.034 0.002 0.034 0.002 0.034 0.002 0.034 0.001 0.034 0.001 0.034 0.001 0.034 0.001 0.034 0.001 0.034 0.001 0.034 0.001 0.034v0.134H50.086z" opacity=".6"/><path fill="#ceff29" d="m49.98 49.831 0.112 -0.298 0.112 -0.298 0.112 -0.298 0.112 -0.298 0.112 -0.298 0.112 -0.298 0.112 -0.298 0.112 -0.298 0.112 -0.298 0.112 -0.298 0.112 -0.298 0.112 -0.298 0.112 -0.298 0.112 -0.298 0.112 -0.298 0.112 -0.298 0.112 -0.298 0.112 -0.298 0.112 -0.298 0.112 -0.298 0.112 -0.298 0.112 -0.298 0.112 -0.298 0.112 -0.298 0.112 -0.298 0.112 -0.298 0.112 -0.298 0.112 -0.298 0.112 -0.298 0.112 -0.298 0.112 -0.298 0.112 -0.298 0.112 -0.298 0.112 -0.298 0.112 -0.298 0.112 -0.298 0.112 -0.298 0.112 -0.298 0.112 -0.298 0.112 -0.298 0.112 -0.298 0.112 -0.298 0.112 -0.298 0.112 -0.298 0.112 -0.298 0.112 -0.298 0.112 -0.298 0.112 -0.298 0.112 -0.298 0.112 -0.298 0.112 -0.298 0.112 -0.298 0.112 -0.298 0.112 -0.298 0.112 -0.298 0.112 -0.298 0.112 -0.298 0.112 -0.298 0.112 -0.298 0.112 -0.298 0.112 -0.298 0.112 -0.298 0.112 -0.298 0.112 -0.298 0.112 -0.298 0.112 -0.298 0.112 -0.298 0.112 -0.298 0.112 -0.298 0.112 -0.298 0.112 -0.298 0.112 -0.298 0.112 -0.298 0.112 -0.298 0.112 -0.298 0.112 -0.298 0.112 -0.298 0.112 -0.298 0.112 -0.298 0.112 -0.298 0.112 -0.298 0.112 -0.298 0.112 -0.298 0.112 -0.298 0.112 -0.298 0.112 -0.298 0.112 -0.298 0.112 -0.298 0.112 -0.298 0.112 -0.298 0.112 -0.298 0.112 -0.298 0.112 -0.298 0.112 -0.298 0.112 -0.298 0.112 -0.298 0.112 -0.298 0.12 -0.321 0.112 -0.298 0.112 -0.298 0.094 0.035 0.094 0.036 0.093 0.036 0.093 0.036 0.093 0.037 0.093 0.037 0.093 0.037 0.093 0.037 0.093 0.037 0.092 0.038 0.092 0.038 0.092 0.038 0.092 0.039 0.092 0.039 0.092 0.039 0.091 0.04 0.091 0.04 0.091 0.04 0.091 0.041 0.091 0.041 0.091 0.041 0.091 0.041 0.091 0.041 0.091 0.042 0.091 0.042 0.091 0.042 0.091 0.043 0.09 0.043 0.09 0.043 0.09 0.044 0.09 0.044 0.09 0.045 0.09 0.045 0.089 0.045 0.089 0.045 0.089 0.045 0.089 0.045 0.089 0.046 0.088 0.046 0.088 0.046 0.088 0.047 0.088 0.047 0.088 0.048 0.088 0.048 0.088 0.048 0.088 0.048 0.088 0.048 0.088 0.048 0.088 0.049 0.087 0.049 0.087 0.049 0.087 0.05 0.087 0.05 0.087 0.05 0.086 0.051 0.086 0.051 0.086 0.051 0.086 0.052 0.086 0.052 0.085 0.052 0.085 0.052 0.085 0.052 0.085 0.052 0.084 0.053 0.084 0.053 0.084 0.053 0.084 0.054 0.084 0.054 0.084 0.054 0.084 0.055 0.084 0.055 0.084 0.055 0.084 0.055 0.083 0.055 0.083 0.056 0.083 0.056 0.083 0.056 0.082 0.057 0.082 0.057 0.082 0.057 0.082 0.058 0.081 0.058 0.081 0.058 0.081 0.058 0.081 0.059 0.081 0.059 0.08 0.059 0.08 0.059 0.08 0.059 0.08 0.059 0.08 0.06 0.08 0.06 0.08 0.06 0.08 0.061 0.079 0.061 0.079 0.061 0.079 0.062 0.079 0.062 0.078 0.062 0.078 0.063 -0.198 0.248 -0.198 0.248 -0.198 0.248 -0.198 0.248 -0.198 0.248 -0.198 0.248 -0.198 0.248 -0.198 0.248 -0.198 0.248 -0.198 0.248 -0.198 0.248 -0.198 0.248 -0.198 0.248 -0.197 0.253 -0.198 0.248 -0.198 0.248 -0.198 0.248 -0.198 0.248 -0.198 0.248 -0.198 0.25 -0.198 0.248 -0.198 0.248 -0.198 0.248 -0.198 0.248 -0.198 0.248 -0.198 0.248 -0.198 0.248 -0.198 0.248 -0.198 0.248 -0.198 0.248 -0.198 0.248 -0.198 0.248 -0.198 0.248 -0.198 0.248 -0.198 0.248 -0.198 0.248 -0.198 0.248 -0.198 0.248 -0.198 0.248 -0.198 0.248 -0.198 0.248 -0.198 0.248 -0.198 0.248 -0.198 0.248 -0.198 0.248 -0.198 0.248 -0.198 0.248 -0.198 0.248 -0.198 0.248 -0.198 0.248 -0.198 0.248 -0.197 0.259 -0.198 0.248 -0.198 0.248 -0.198 0.248 -0.198 0.248 -0.198 0.248 -0.198 0.25 -0.198 0.248 -0.198 0.248 -0.198 0.248 -0.198 0.248 -0.198 0.248 -0.198 0.248 -0.198 0.248 -0.198 0.248 -0.198 0.248 -0.198 0.248 -0.198 0.248 -0.198 0.248 -0.198 0.248 -0.198 0.248 -0.198 0.248 -0.198 0.248 -0.198 0.248 -0.198 0.248 -0.198 0.248 -0.198 0.248 -0.198 0.248 -0.198 0.248 -0.197 0.256 -0.198 0.248 -0.198 0.248 -0.198 0.248 -0.198 0.248 -0.198 0.248 -0.198 0.248 -0.198 0.248 -0.198 0.248 -0.198 0.248 -0.198 0.248 -0.198 0.248 -0.198 0.248 -0.198 0.248 -0.198 0.248 -0.198 0.248 -0.198 0.248 -0.198 0.248 -0.198 0.248z" opacity=".6"/><path fill="#ff6800" d="m49.98 49.831 -0.272 -0.326 -0.272 -0.326 -0.272 -0.326 -0.272 -0.326 -0.272 -0.326 -0.272 -0.326 -0.272 -0.326 -0.272 -0.326 -0.272 -0.326 -0.272 -0.326 -0.272 -0.326 -0.272 -0.326 -0.272 -0.326 -0.272 -0.326 -0.272 -0.326 -0.272 -0.326 -0.272 -0.326 -0.272 -0.326 -0.272 -0.326 -0.272 -0.326 -0.272 -0.326 -0.272 -0.326 -0.272 -0.326 -0.272 -0.326 -0.272 -0.326 -0.272 -0.326 -0.272 -0.326 -0.272 -0.326 -0.272 -0.326 -0.272 -0.326 -0.272 -0.326 -0.272 -0.326 -0.272 -0.326 -0.272 -0.326 -0.272 -0.326 -0.272 -0.326 -0.272 -0.326 -0.272 -0.326 -0.272 -0.326 -0.272 -0.326 -0.272 -0.326 -0.272 -0.326 -0.272 -0.326 -0.272 -0.326 -0.272 -0.326 -0.272 -0.326 -0.272 -0.326 -0.272 -0.326 -0.272 -0.326 -0.272 -0.326 -0.272 -0.326 -0.272 -0.326 -0.272 -0.326 -0.272 -0.326 -0.272 -0.326 -0.272 -0.326 -0.272 -0.326 -0.272 -0.326 -0.272 -0.326 -0.272 -0.326 -0.272 -0.326 -0.272 -0.326 -0.272 -0.326 -0.272 -0.326 -0.272 -0.326 -0.272 -0.326 -0.272 -0.326 -0.272 -0.326 -0.272 -0.326 -0.272 -0.326 -0.272 -0.326 -0.272 -0.326 -0.272 -0.326 -0.272 -0.326 -0.272 -0.326 -0.272 -0.326 -0.272 -0.326 -0.272 -0.326 -0.272 -0.326 -0.272 -0.326 -0.272 -0.326 -0.272 -0.326 -0.272 -0.326 -0.272 -0.326 -0.272 -0.326 -0.272 -0.326 -0.272 -0.326 -0.272 -0.326 -0.272 -0.326 -0.272 -0.326 -0.272 -0.326 -0.272 -0.326 -0.272 -0.326 -0.273 -0.315 -0.272 -0.326 -0.272 -0.326 -0.272 -0.326 -0.272 -0.326 -0.272 -0.326 -0.272 -0.326 0.154 -0.128 0.155 -0.127 0.155 -0.127 0.155 -0.126 0.156 -0.125 0.157 -0.124 0.157 -0.123 0.158 -0.123 0.159 -0.122 0.159 -0.121 0.159 -0.12 0.16 -0.12 0.161 -0.119 0.161 -0.118 0.162 -0.117 0.163 -0.116 0.163 -0.116 0.163 -0.115 0.164 -0.114 0.165 -0.113 0.165 -0.112 0.166 -0.112 0.166 -0.111 0.166 -0.11 0.167 -0.109 0.168 -0.109 0.168 -0.108 0.169 -0.107 0.17 -0.106 0.17 -0.105 0.17 -0.105 0.171 -0.104 0.171 -0.103 0.172 -0.102 0.172 -0.102 0.173 -0.101 0.173 -0.1 0.173 -0.099 0.174 -0.098 0.174 -0.098 0.175 -0.097 0.176 -0.096 0.176 -0.095 0.177 -0.095 0.177 -0.094 0.177 -0.092 0.177 -0.091 0.178 -0.091 0.178 -0.09 0.179 -0.089 0.18 -0.088 0.18 -0.088 0.18 -0.087 0.18 -0.086 0.181 -0.085 0.181 -0.084 0.182 -0.084 0.182 -0.082 0.183 -0.081 0.183 -0.08 0.184 -0.08 0.184 -0.079 0.184 -0.078 0.184 -0.077 0.185 -0.077 0.185 -0.076 0.185 -0.074 0.186 -0.073 0.186 -0.073 0.187 -0.072 0.187 -0.071 0.188 -0.07 0.188 -0.07 0.188 -0.069 0.188 -0.067 0.188 -0.066 0.189 -0.066 0.189 -0.065 0.189 -0.064 0.19 -0.063 0.19 -0.063 0.191 -0.061 0.191 -0.06 0.191 -0.059 0.191 -0.059 0.191 -0.058 0.191 -0.057 0.192 -0.056 0.192 -0.055 0.192 -0.054 0.193 -0.053 0.193 -0.052 0.193 -0.052 0.194 -0.051 0.194 -0.049 0.194 -0.048 0.195 -0.048 0.195 -0.047 0.195 -0.046 0.195 -0.045 0.095 0.413 0.095 0.413 0.095 0.413 0.095 0.413 0.095 0.413 0.095 0.413 0.095 0.413 0.095 0.413 0.095 0.413 0.095 0.413 0.095 0.413 0.095 0.413 0.095 0.413 0.095 0.413 0.095 0.413 0.095 0.413 0.095 0.413 0.095 0.413 0.095 0.413 0.095 0.413 0.095 0.413 0.095 0.413 0.095 0.413 0.095 0.413 0.095 0.413 0.095 0.413 0.095 0.413 0.095 0.413 0.095 0.413 0.095 0.413 0.095 0.413 0.095 0.413 0.095 0.413 0.088 0.424 0.095 0.413 0.095 0.413 0.095 0.413 0.095 0.413 0.095 0.413 0.095 0.413 0.095 0.413 0.095 0.413 0.095 0.413 0.095 0.413 0.095 0.413 0.095 0.413 0.095 0.413 0.095 0.413 0.095 0.413 0.095 0.413 0.095 0.413 0.095 0.413 0.095 0.413 0.095 0.413 0.095 0.413 0.095 0.413 0.095 0.413 0.095 0.413 0.095 0.413 0.095 0.413 0.095 0.413 0.095 0.413 0.095 0.413 0.095 0.413 0.095 0.413 0.095 0.413 0.095 0.413 0.095 0.413 0.095 0.413 0.095 0.413 0.095 0.413 0.095 0.413 0.095 0.413 0.095 0.413 0.095 0.413 0.095 0.413 0.095 0.413 0.095 0.413 0.095 0.413 0.095 0.413 0.095 0.413 0.095 0.413 0.095 0.413 0.095 0.413 0.095 0.413 0.095 0.413 0.095 0.413 0.095 0.413 0.095 0.413 0.095 0.413 0.095 0.413 0.095 0.413 0.095 0.413 0.095 0.413 0.095 0.413 0.095 0.413 0.095 0.413 0.095 0.413 0.095 0.413z" opacity=".6"/><path fill="#ffc400" d="m49.98 49.831 -0.366 0.066 -0.366 0.066 -0.366 0.066 -0.366 0.066 -0.366 0.066 -0.366 0.066 -0.366 0.066 -0.366 0.066 -0.366 0.066 -0.362 0.065 -0.366 0.066 -0.366 0.066 -0.366 0.066 -0.366 0.066 -0.366 0.066 -0.366 0.066 -0.366 0.066 -0.366 0.066 -0.366 0.066 -0.366 0.066 -0.366 0.066 -0.361 0.065 -0.366 0.066 -0.366 0.066 -0.366 0.066 -0.364 0.066 -0.366 0.066 -0.366 0.066 -0.366 0.066 -0.366 0.066 -0.366 0.066 -0.366 0.066 -0.366 0.066 -0.366 0.066 -0.366 0.066 -0.366 0.066 -0.366 0.066 -0.366 0.066 -0.366 0.066 -0.366 0.066 -0.366 0.066 -0.366 0.066 -0.366 0.066 -0.366 0.066 -0.366 0.066 -0.366 0.066 -0.366 0.066 -0.366 0.066 -0.366 0.066 -0.356 0.063 -0.366 0.066 -0.366 0.066 -0.366 0.066 -0.366 0.066 -0.366 0.066 -0.366 0.066 -0.366 0.066 -0.366 0.066 -0.366 0.066 -0.366 0.066 -0.366 0.066 -0.366 0.066 -0.366 0.066 -0.366 0.066 -0.366 0.066 -0.366 0.066 -0.366 0.066 -0.366 0.066 -0.366 0.066 -0.366 0.066 -0.366 0.066 -0.366 0.066 -0.366 0.066 -0.366 0.066 -0.366 0.066 -0.366 0.066 -0.366 0.066 -0.366 0.066 -0.366 0.066 -0.366 0.066 -0.366 0.066 -0.366 0.066 -0.366 0.066 -0.366 0.066 -0.366 0.066 -0.352 0.062 -0.366 0.066 -0.366 0.066 -0.366 0.066 -0.364 0.066 -0.366 0.066 -0.366 0.066 -0.366 0.066 -0.366 0.066 -0.366 0.066 -0.366 0.066 -0.366 0.066 -0.366 0.066 -0.366 0.066 -0.366 0.066 -0.041 -0.23 -0.04 -0.23 -0.038 -0.23 -0.037 -0.23 -0.035 -0.23 -0.03 -0.232 -0.032 -0.231 -0.03 -0.231 -0.03 -0.231 -0.028 -0.231 -0.027 -0.232 -0.025 -0.232 -0.023 -0.232 -0.022 -0.232 -0.02 -0.232 -0.019 -0.233 -0.018 -0.233 -0.016 -0.233 -0.015 -0.233 -0.013 -0.233 -0.012 -0.233 -0.01 -0.233 -0.009 -0.233 -0.007 -0.233 -0.006 -0.233 -0.005 -0.233 -0.003 -0.234 -0.002 -0.234v-0.234l0.002 -0.234 0.003 -0.234 0.004 -0.233 0.005 -0.233 0.007 -0.233 0.009 -0.233 0.01 -0.233 0.012 -0.233 0.013 -0.233 0.015 -0.233 0.016 -0.233 0.017 -0.233 0.019 -0.233 0.02 -0.232 0.022 -0.232 0.023 -0.232 0.025 -0.232 0.027 -0.232 0.027 -0.231 0.029 -0.231 0.03 -0.231 0.032 -0.231 0.034 -0.23 0.035 -0.23 0.037 -0.23 0.037 -0.23 0.039 -0.23 0.041 -0.23 0.042 -0.23 0.044 -0.229 0.045 -0.229 0.046 -0.229 0.048 -0.228 0.049 -0.228 0.051 -0.227 0.052 -0.227 0.054 -0.227 0.055 -0.227 0.056 -0.227 0.058 -0.226 0.059 -0.226 0.061 -0.225 0.063 -0.225 0.063 -0.224 0.065 -0.224 0.066 -0.223 0.068 -0.223 0.07 -0.223 0.07 -0.223 0.072 -0.222 0.073 -0.221 0.075 -0.221 0.076 -0.22 0.077 -0.22 0.079 -0.22 0.08 -0.219 0.082 -0.219 0.083 -0.218 0.084 -0.217 0.086 -0.217 0.088 -0.216 0.088 -0.216 0.09 -0.216 0.091 -0.215 0.092 -0.214 0.094 -0.213 0.095 -0.213 0.097 -0.213 0.098 -0.212 0.099 -0.211 0.101 -0.21 0.334 0.161 0.334 0.161 0.334 0.161 0.334 0.161 0.334 0.161 0.334 0.161 0.334 0.161 0.334 0.161 0.334 0.161 0.334 0.161 0.334 0.161 0.334 0.161 0.334 0.161 0.334 0.161 0.334 0.161 0.334 0.161 0.334 0.161 0.334 0.161 0.334 0.161 0.334 0.161 0.334 0.161 0.334 0.161 0.334 0.161 0.334 0.161 0.334 0.161 0.334 0.161 0.334 0.161 0.334 0.161 0.334 0.161 0.334 0.161 0.334 0.161 0.334 0.161 0.334 0.161 0.334 0.161 0.334 0.161 0.334 0.161 0.334 0.161 0.334 0.161 0.334 0.161 0.334 0.161 0.334 0.161 0.334 0.161 0.334 0.161 0.334 0.161 0.334 0.161 0.334 0.161 0.334 0.161 0.334 0.161 0.334 0.161 0.334 0.161 0.334 0.161 0.334 0.161 0.334 0.161 0.334 0.161 0.334 0.161 0.334 0.161 0.334 0.161 0.334 0.161 0.334 0.161 0.334 0.161 0.334 0.161 0.334 0.161 0.334 0.161 0.334 0.161 0.334 0.161 0.334 0.161 0.334 0.161 0.334 0.161 0.334 0.161 0.334 0.161 0.334 0.161 0.334 0.161 0.334 0.161 0.334 0.161 0.334 0.161 0.334 0.161 0.334 0.161 0.334 0.161 0.334 0.161 0.334 0.161 0.334 0.161 0.334 0.161 0.334 0.161 0.334 0.161 0.334 0.161 0.334 0.161 0.334 0.161 0.334 0.161 0.334 0.161 0.334 0.161 0.334 0.161 0.334 0.161 0.334 0.161 0.334 0.161 0.334 0.161 0.334 0.161 0.334 0.161 0.334 0.161 0.334 0.161z" opacity=".6"/><path fill="#29ffce" d="m49.98 49.831 -0.174 0.121 -0.174 0.121 -0.174 0.121 -0.174 0.121 -0.174 0.121 -0.174 0.121 -0.174 0.121 -0.175 0.118 -0.174 0.121 -0.174 0.121 -0.174 0.121 -0.174 0.121 -0.174 0.121 -0.174 0.121 -0.174 0.121 -0.174 0.121 -0.174 0.121 -0.174 0.121 -0.174 0.121 -0.174 0.121 -0.174 0.121 -0.174 0.121 -0.174 0.121 -0.174 0.121 -0.174 0.121 -0.174 0.121 -0.174 0.121 -0.174 0.121 -0.174 0.121 -0.174 0.121 -0.174 0.121 -0.174 0.121 -0.174 0.121 -0.174 0.121 -0.174 0.121 -0.174 0.121 -0.174 0.121 -0.174 0.121 -0.174 0.121 -0.174 0.121 -0.174 0.121 -0.174 0.121 -0.174 0.121 -0.174 0.121 -0.174 0.121 -0.174 0.121 -0.174 0.121 -0.174 0.121 -0.174 0.121 -0.174 0.121 -0.174 0.121 -0.174 0.121 -0.174 0.121 -0.174 0.121 -0.181 0.107 -0.174 0.121 -0.174 0.121 -0.174 0.121 -0.174 0.121 -0.174 0.121 -0.174 0.121 -0.174 0.121 -0.174 0.121 -0.174 0.121 -0.174 0.121 -0.174 0.121 -0.174 0.121 -0.174 0.121 -0.174 0.121 -0.174 0.121 -0.174 0.121 -0.174 0.121 -0.174 0.121 -0.174 0.121 -0.174 0.121 -0.174 0.121 -0.174 0.121 -0.174 0.121 -0.174 0.121 -0.174 0.121 -0.174 0.121 -0.174 0.121 -0.174 0.121 -0.174 0.121 -0.174 0.121 -0.174 0.121 -0.174 0.121 -0.174 0.121 -0.174 0.121 -0.174 0.121 -0.174 0.121 -0.174 0.121 -0.174 0.121 -0.174 0.121 -0.174 0.121 -0.174 0.121 -0.174 0.121 -0.174 0.121 -0.18 0.108 -0.174 0.121 -0.019 -0.027 -0.019 -0.027 -0.019 -0.027 -0.019 -0.027 -0.019 -0.027 -0.019 -0.027 -0.019 -0.027 -0.019 -0.027 -0.019 -0.027 -0.019 -0.027 -0.019 -0.027 -0.019 -0.027 -0.019 -0.028 -0.019 -0.028 -0.018 -0.028 -0.018 -0.028 -0.018 -0.028 -0.018 -0.028 -0.018 -0.028 -0.018 -0.028 -0.018 -0.028 -0.018 -0.028 -0.018 -0.028 -0.018 -0.028 -0.018 -0.028 -0.018 -0.028 -0.018 -0.028 -0.018 -0.028 -0.018 -0.028 -0.018 -0.028 -0.018 -0.028 -0.018 -0.028 -0.017 -0.028 -0.017 -0.028 -0.017 -0.028 -0.017 -0.028 -0.017 -0.028 -0.017 -0.028 -0.017 -0.028 -0.017 -0.028 -0.017 -0.029 -0.017 -0.029 -0.017 -0.029 -0.017 -0.029 -0.017 -0.029 -0.017 -0.029 -0.017 -0.029 -0.017 -0.029 -0.017 -0.029 -0.016 -0.029 -0.016 -0.029 -0.016 -0.029 -0.016 -0.029 -0.016 -0.029 -0.016 -0.029 -0.016 -0.029 -0.016 -0.029 -0.016 -0.029 -0.016 -0.029 -0.016 -0.029 -0.016 -0.029 -0.016 -0.029 -0.016 -0.029 -0.016 -0.029 -0.016 -0.029 -0.016 -0.029 -0.016 -0.029 -0.016 -0.029 -0.016 -0.029 -0.016 -0.029 -0.016 -0.03 -0.016 -0.03 -0.016 -0.03 -0.016 -0.03 -0.016 -0.03 -0.016 -0.03 -0.016 -0.03 -0.016 -0.03 -0.016 -0.03 -0.016 -0.03 -0.016 -0.03 -0.016 -0.03 -0.016 -0.03 -0.015 -0.03 -0.015 -0.03 -0.015 -0.03 -0.015 -0.03 -0.015 -0.03 -0.015 -0.03 -0.015 -0.03 -0.015 -0.03 -0.015 -0.03 -0.015 -0.03 -0.015 -0.03 -0.015 -0.03 -0.015 -0.03 -0.015 -0.03 -0.015 -0.032 -0.015 -0.03 -0.015 -0.03 0.191 -0.092 0.191 -0.092 0.191 -0.092 0.191 -0.092 0.191 -0.092 0.191 -0.092 0.191 -0.092 0.191 -0.092 0.191 -0.092 0.191 -0.092 0.191 -0.092 0.191 -0.092 0.191 -0.092 0.191 -0.092 0.191 -0.092 0.191 -0.092 0.191 -0.092 0.191 -0.092 0.191 -0.092 0.191 -0.092 0.191 -0.092 0.191 -0.092 0.191 -0.092 0.191 -0.092 0.191 -0.092 0.191 -0.092 0.191 -0.092 0.191 -0.092 0.191 -0.092 0.191 -0.092 0.191 -0.092 0.191 -0.092 0.191 -0.092 0.191 -0.092 0.191 -0.092 0.191 -0.092 0.191 -0.092 0.191 -0.092 0.191 -0.092 0.191 -0.092 0.191 -0.092 0.191 -0.092 0.191 -0.092 0.191 -0.092 0.191 -0.092 0.191 -0.092 0.191 -0.092 0.191 -0.092 0.191 -0.092 0.191 -0.092 0.191 -0.092 0.191 -0.092 0.191 -0.092 0.191 -0.092 0.191 -0.092 0.191 -0.092 0.191 -0.092 0.191 -0.092 0.191 -0.092 0.191 -0.092 0.191 -0.092 0.191 -0.092 0.191 -0.092 0.191 -0.092 0.191 -0.092 0.191 -0.092 0.191 -0.092 0.191 -0.092 0.191 -0.092 0.191 -0.092 0.191 -0.092 0.191 -0.092 0.191 -0.092 0.191 -0.092 0.191 -0.092 0.191 -0.092 0.191 -0.092 0.191 -0.092 0.191 -0.092 0.191 -0.092 0.191 -0.092 0.191 -0.092 0.191 -0.092 0.191 -0.092 0.191 -0.092 0.191 -0.092 0.191 -0.092 0.191 -0.092 0.191 -0.092 0.191 -0.092 0.191 -0.092 0.191 -0.092 0.191 -0.092 0.191 -0.092 0.191 -0.092 0.191 -0.092 0.191 -0.092 0.191 -0.092 0.191 -0.092z" opacity=".6"/><path fill="#7dff7a" d="m49.98 49.831 0.045 0.262 0.045 0.262 0.045 0.262 0.045 0.262 0.045 0.262 0.045 0.262 0.045 0.262 0.045 0.262 0.045 0.262 0.045 0.262 0.045 0.262 0.045 0.262 0.045 0.262 0.045 0.262 0.045 0.262 0.045 0.262 0.045 0.262 0.045 0.262 0.045 0.262 0.045 0.262 0.045 0.262 0.045 0.262 0.045 0.262 0.045 0.262 0.045 0.262 0.045 0.262 0.045 0.262 0.045 0.262 0.045 0.262 0.045 0.262 0.045 0.262 0.045 0.262 0.045 0.262 0.045 0.262 0.045 0.262 0.045 0.262 0.045 0.262 0.045 0.262 0.045 0.262 0.045 0.262 0.045 0.262 0.045 0.262 0.045 0.262 0.045 0.262 0.045 0.262 0.045 0.262 0.045 0.262 0.045 0.262 0.045 0.262 0.045 0.262 0.045 0.262 0.045 0.262 0.045 0.262 0.045 0.262 0.045 0.262 0.045 0.262 0.045 0.262 0.045 0.262 0.045 0.262 0.045 0.262 0.045 0.262 0.045 0.262 0.045 0.262 0.045 0.262 0.045 0.262 0.045 0.262 0.045 0.262 0.045 0.262 0.045 0.262 0.045 0.262 0.045 0.262 0.045 0.262 0.045 0.262 0.045 0.262 0.045 0.262 0.045 0.262 0.045 0.262 0.045 0.262 0.045 0.262 0.045 0.262 0.045 0.262 0.045 0.262 0.045 0.262 0.045 0.262 0.045 0.262 0.045 0.262 0.045 0.262 0.045 0.262 0.045 0.262 0.045 0.262 0.045 0.262 0.045 0.262 0.045 0.262 0.045 0.262 0.045 0.262 0.045 0.262 0.045 0.262 0.045 0.262 0.045 0.262 0.045 0.262 -0.102 0.017 -0.103 0.017 -0.103 0.016 -0.103 0.016 -0.103 0.016 -0.103 0.015 -0.103 0.015 -0.103 0.014 -0.103 0.014 -0.103 0.013 -0.103 0.013 -0.103 0.013 -0.103 0.013 -0.103 0.012 -0.103 0.012 -0.103 0.011 -0.104 0.011 -0.104 0.01 -0.104 0.01 -0.104 0.009 -0.104 0.009 -0.104 0.009 -0.104 0.009 -0.104 0.008 -0.104 0.008 -0.104 0.007 -0.104 0.007 -0.104 0.006 -0.104 0.005 -0.104 0.005 -0.104 0.005 -0.104 0.005 -0.104 0.004 -0.104 0.004 -0.104 0.003 -0.104 0.003 -0.104 0.002 -0.104 0.002 -0.104 0.002 -0.104 0.002 -0.104 0.001 -0.104 0.001h-0.208l-0.104 -0.001 -0.104 -0.001 -0.104 -0.002 -0.104 -0.002 -0.104 -0.002 -0.104 -0.002 -0.104 -0.003 -0.12 -0.037 -0.104 -0.004 -0.104 -0.004 -0.104 -0.005 -0.104 -0.005 -0.105 -0.005 -0.104 -0.006 -0.104 -0.006 -0.104 -0.007 -0.104 -0.007 -0.104 -0.008 -0.104 -0.008 -0.104 -0.009 -0.104 -0.009 -0.104 -0.009 -0.104 -0.009 -0.104 -0.01 -0.104 -0.01 -0.104 -0.011 -0.103 -0.012 -0.102 -0.012 -0.103 -0.012 -0.103 -0.013 -0.103 -0.013 -0.103 -0.013 -0.103 -0.014 -0.103 -0.014 -0.103 -0.015 -0.103 -0.015 -0.103 -0.016 -0.103 -0.016 -0.103 -0.016 -0.103 -0.016 -0.102 -0.017 -0.102 -0.017 -0.102 -0.018 -0.102 -0.018 -0.102 -0.019 -0.102 -0.019 -0.102 -0.02 -0.102 -0.02 -0.102 -0.02 -0.102 -0.02 -0.102 -0.021 -0.102 -0.021 -0.102 -0.022 -0.102 -0.022 -0.102 -0.023 -0.102 -0.023 0.059 -0.259 0.059 -0.259 0.059 -0.259 0.059 -0.259 0.059 -0.259 0.059 -0.259 0.059 -0.259 0.059 -0.259 0.059 -0.259 0.059 -0.259 0.059 -0.259 0.059 -0.259 0.059 -0.259 0.059 -0.259 0.059 -0.259 0.059 -0.259 0.059 -0.259 0.059 -0.259 0.059 -0.259 0.059 -0.259 0.059 -0.259 0.059 -0.259 0.059 -0.259 0.059 -0.259 0.059 -0.259 0.059 -0.259 0.059 -0.259 0.059 -0.259 0.059 -0.259 0.059 -0.259 0.059 -0.259 0.059 -0.259 0.059 -0.259 0.059 -0.259 0.059 -0.259 0.059 -0.259 0.059 -0.259 0.059 -0.259 0.059 -0.259 0.059 -0.259 0.059 -0.259 0.059 -0.259 0.059 -0.259 0.059 -0.259 0.059 -0.259 0.059 -0.259 0.059 -0.259 0.059 -0.259 0.059 -0.259 0.059 -0.259 0.059 -0.259 0.059 -0.259 0.059 -0.259 0.059 -0.259 0.059 -0.259 0.059 -0.259 0.059 -0.259 0.059 -0.259 0.059 -0.259 0.059 -0.259 0.059 -0.259 0.059 -0.259 0.059 -0.259 0.059 -0.259 0.059 -0.259 0.059 -0.259 0.059 -0.259 0.059 -0.259 0.059 -0.259 0.059 -0.259 0.059 -0.259 0.059 -0.259 0.059 -0.259 0.059 -0.259 0.059 -0.259 0.059 -0.259 0.059 -0.259 0.059 -0.259 0.059 -0.259 0.059 -0.259 0.059 -0.259 0.059 -0.259 0.059 -0.259 0.059 -0.259 0.059 -0.259 0.059 -0.259 0.059 -0.259 0.059 -0.259 0.059 -0.259 0.059 -0.259 0.059 -0.259 0.059 -0.259 0.059 -0.259 0.059 -0.259 0.059 -0.259 0.059 -0.259 0.059 -0.259 0.059 -0.259 0.059 -0.259z" opacity=".6"/><path fill="#ff6800" d="m49.98 49.831 0.334 0.261 0.334 0.261 0.334 0.261 0.334 0.261 0.334 0.261 0.334 0.261 0.334 0.261 0.334 0.261 0.334 0.261 0.334 0.261 0.334 0.261 0.334 0.261 0.334 0.261 0.334 0.261 0.338 0.258 0.334 0.261 0.334 0.261 0.334 0.261 0.334 0.261 0.334 0.261 0.334 0.261 0.334 0.261 0.334 0.261 0.334 0.261 0.334 0.261 0.334 0.261 0.334 0.261 0.334 0.261 0.334 0.261 0.334 0.261 0.334 0.261 0.334 0.261 0.334 0.261 0.334 0.261 0.334 0.261 0.334 0.261 0.334 0.261 0.334 0.261 0.334 0.261 0.334 0.261 0.334 0.261 0.334 0.261 0.334 0.261 0.334 0.261 0.334 0.261 0.334 0.261 0.334 0.261 0.334 0.261 0.334 0.261 0.334 0.261 0.334 0.261 0.334 0.261 0.334 0.261 0.334 0.261 0.334 0.261 0.334 0.261 0.334 0.261 0.334 0.261 0.334 0.261 0.334 0.261 0.334 0.261 0.334 0.261 0.334 0.261 0.334 0.261 0.334 0.261 0.334 0.261 0.334 0.261 0.334 0.261 0.334 0.261 0.334 0.261 0.334 0.261 0.334 0.261 0.334 0.261 0.334 0.261 0.334 0.261 0.334 0.261 0.334 0.261 0.334 0.261 0.334 0.261 0.334 0.261 0.334 0.261 0.334 0.261 0.334 0.261 0.334 0.261 0.334 0.261 0.334 0.261 0.334 0.261 0.334 0.261 0.334 0.261 0.334 0.261 0.334 0.261 0.334 0.261 0.334 0.261 0.334 0.261 0.334 0.261 0.334 0.261 0.334 0.261 0.334 0.261 0.334 0.261 0.334 0.261 -0.062 0.079 -0.062 0.079 -0.062 0.078 -0.062 0.078 -0.063 0.078 -0.063 0.078 -0.063 0.078 -0.063 0.078 -0.063 0.077 -0.063 0.077 -0.063 0.077 -0.063 0.077 -0.064 0.077 -0.064 0.077 -0.064 0.077 -0.064 0.077 -0.065 0.077 -0.065 0.077 -0.065 0.076 -0.065 0.076 -0.065 0.076 -0.066 0.076 -0.066 0.076 -0.066 0.075 -0.066 0.075 -0.066 0.075 -0.066 0.075 -0.066 0.075 -0.066 0.074 -0.066 0.074 -0.067 0.074 -0.067 0.074 -0.067 0.074 -0.067 0.073 -0.068 0.073 -0.068 0.073 -0.068 0.073 -0.068 0.073 -0.068 0.073 -0.069 0.073 -0.069 0.073 -0.069 0.073 -0.069 0.073 -0.07 0.072 -0.07 0.072 -0.07 0.072 -0.07 0.072 -0.07 0.072 -0.07 0.071 -0.07 0.071 -0.07 0.071 -0.07 0.071 -0.07 0.07 -0.071 0.07 -0.071 0.07 -0.071 0.07 -0.071 0.07 -0.072 0.07 -0.072 0.07 -0.072 0.07 -0.072 0.07 -0.072 0.07 -0.073 0.069 -0.073 0.069 -0.073 0.069 -0.073 0.069 -0.073 0.068 -0.073 0.068 -0.073 0.068 -0.073 0.068 -0.073 0.068 -0.073 0.067 -0.053 0.052 -0.074 0.067 -0.074 0.067 -0.074 0.066 -0.074 0.066 -0.075 0.066 -0.075 0.066 -0.075 0.066 -0.075 0.066 -0.075 0.066 -0.076 0.066 -0.076 0.066 -0.076 0.065 -0.076 0.065 -0.076 0.065 -0.077 0.065 -0.077 0.064 -0.077 0.064 -0.077 0.064 -0.077 0.064 -0.077 0.064 -0.077 0.063 -0.077 0.063 -0.077 0.063 -0.077 0.063 -0.078 0.063 -0.078 0.063 -0.078 0.063 -0.265 -0.332 -0.264 -0.331 -0.265 -0.332 -0.265 -0.332 -0.265 -0.332 -0.265 -0.332 -0.265 -0.332 -0.265 -0.332 -0.265 -0.332 -0.265 -0.332 -0.265 -0.332 -0.265 -0.332 -0.265 -0.332 -0.265 -0.332 -0.265 -0.332 -0.265 -0.332 -0.265 -0.332 -0.265 -0.332 -0.265 -0.332 -0.265 -0.332 -0.265 -0.332 -0.265 -0.332 -0.265 -0.332 -0.265 -0.332 -0.265 -0.332 -0.258 -0.323 -0.265 -0.332 -0.265 -0.332 -0.265 -0.332 -0.265 -0.332 -0.265 -0.332 -0.265 -0.332 -0.265 -0.332 -0.265 -0.332 -0.265 -0.332 -0.265 -0.332 -0.265 -0.332 -0.265 -0.332 -0.265 -0.332 -0.265 -0.332 -0.265 -0.332 -0.265 -0.332 -0.265 -0.332 -0.265 -0.332 -0.265 -0.332 -0.265 -0.332 -0.265 -0.332 -0.265 -0.332 -0.265 -0.332 -0.265 -0.332 -0.265 -0.332 -0.265 -0.332 -0.265 -0.332 -0.265 -0.332 -0.265 -0.332 -0.265 -0.332 -0.265 -0.332 -0.265 -0.332 -0.265 -0.332 -0.265 -0.332 -0.265 -0.332 -0.265 -0.332 -0.265 -0.332 -0.265 -0.332 -0.265 -0.332 -0.265 -0.332 -0.265 -0.332 -0.265 -0.332 -0.265 -0.332 -0.265 -0.332 -0.265 -0.332 -0.265 -0.332 -0.265 -0.332 -0.265 -0.332 -0.265 -0.332 -0.265 -0.332 -0.265 -0.332 -0.265 -0.332 -0.265 -0.332 -0.265 -0.332 -0.265 -0.332 -0.265 -0.332 -0.265 -0.332 -0.265 -0.332 -0.265 -0.332 -0.265 -0.332 -0.265 -0.332 -0.265 -0.332 -0.265 -0.332 -0.265 -0.332 -0.265 -0.332 -0.265 -0.332 -0.265 -0.332 -0.265 -0.332 -0.265 -0.332 -0.265 -0.332 -0.265 -0.332 -0.265 -0.332 -0.265 -0.332z" opacity=".6"/><path fill="#2c2c2c" d="m60.587 50.155 -10.606 -0.001a0.323 0.323 0 0 1 -0.1 -0.63l10.088 -3.277a0.323 0.323 0 0 1 0.407 0.207c0.355 1.092 0.535 2.229 0.534 3.377a0.323 0.323 0 0 1 -0.323 0.323m-8.566 -0.647h8.238a10.156 10.156 0 0 0 -0.403 -2.545z"/><path fill="#2c2c2c" d="M49.98 50.154a0.323 0.323 0 0 1 -0.302 -0.436L60.859 19.93a0.32 0.32 0 0 1 0.416 -0.189 32.031 32.031 0 0 1 8.747 4.962 0.323 0.323 0 0 1 0.052 0.454L50.233 50.032a0.328 0.328 0 0 1 -0.252 0.122m11.369 -29.694L51 48.034l18.365 -23.027a31.406 31.406 0 0 0 -8.016 -4.547"/><path fill="#2c2c2c" d="M49.98 50.154a0.328 0.328 0 0 1 -0.248 -0.116L22.545 17.472a0.32 0.32 0 0 1 0.041 -0.455A42.813 42.813 0 0 1 40.47 8.156a0.323 0.323 0 0 1 0.387 0.244l9.44 41.36a0.324 0.324 0 0 1 -0.172 0.362 0.344 0.344 0 0 1 -0.144 0.032M23.248 17.306l26.118 31.284 -9.068 -39.732a42.188 42.188 0 0 0 -17.05 8.448"/><path fill="#2c2c2c" d="M13.456 56.782a0.32 0.32 0 0 1 -0.317 -0.265c-1.416 -7.722 -0.313 -15.866 3.107 -22.934a0.323 0.323 0 0 1 0.431 -0.151l33.444 16.105a0.323 0.323 0 0 1 -0.083 0.609l-36.523 6.629a0.234 0.234 0 0 1 -0.059 0.005m3.231 -22.625c-3.205 6.78 -4.256 14.539 -2.97 21.927l35.227 -6.393z"/><path fill="#2c2c2c" d="M32.545 62.234a0.328 0.328 0 0 1 -0.266 -0.139 21.875 21.875 0 0 1 -1.701 -2.92 0.323 0.323 0 0 1 0.151 -0.431l19.111 -9.203a0.323 0.323 0 0 1 0.324 0.557L32.729 62.177a0.313 0.313 0 0 1 -0.184 0.057m-1.242 -3.05a21.094 21.094 0 0 0 1.326 2.276L46.422 51.903z"/><path fill="#2c2c2c" d="M49.992 76.666c-2.016 0 -4.035 -0.224 -5.984 -0.67a0.324 0.324 0 0 1 -0.243 -0.388l5.9 -25.85c0.034 -0.15 0.174 -0.277 0.324 -0.251a0.32 0.32 0 0 1 0.309 0.269l4.441 26.141a0.323 0.323 0 0 1 -0.265 0.373 26.563 26.563 0 0 1 -4.483 0.376m-5.525 -1.23c3.125 0.672 6.422 0.766 9.581 0.269l-4.115 -24.218z"/><path fill="#2c2c2c" d="M76.431 83.322a0.32 0.32 0 0 1 -0.253 -0.122L49.727 50.032a0.323 0.323 0 0 1 0.451 -0.456l33.463 26.077a0.323 0.323 0 0 1 0.056 0.454 42.734 42.734 0 0 1 -7.066 7.145 0.313 0.313 0 0 1 -0.2 0.07M51.935 51.764l24.547 30.78a42.188 42.188 0 0 0 6.507 -6.58z"/></svg>