<svg xmlns="http://www.w3.org/2000/svg" fill="none" viewBox="0 0 100 100" id="Numpy--Streamline-Svg-Logos" height="100" width="100">
  <desc>
    Numpy Streamline Icon: https://streamlinehq.com
  </desc>
  <path fill="#4dabcf" d="m72.74197916666668 67.7096875 0.02125 21.658020833333335L53.54427083333334 98.95833333333334V77.3096875l19.197708333333335 -9.6Zm23.065625 -11.575416666666667v21.73375L79.415625 86.04864583333334l-0.011770833333333333 -21.634375 16.403750000000002 -8.280000000000001ZM72.71354166666669 38.720312500000006l0.02135416666666667 21.4309375 -19.190625 9.536145833333334V48.24937500000001l19.169270833333336 -9.5290625Zm23.094062500000003 -11.480833333333333v21.296145833333334L79.39906250000001 56.87708333333333l-0.014166666666666668 -21.473541666666666 16.422708333333336 -8.164062500000002Zm-45.185 -2.5194791666666667 17.153750000000002 8.658541666666668L49.979166666666664 42.31614583333334 33.149479166666666 33.86354166666667l17.473125000000003 -9.143541666666666Zm-23.860520833333332 -12.043750000000001 16.361250000000002 8.258645833333334 -17.513333333333335 9.141145833333333 -16.803645833333334 -8.438541666666667 17.955729166666668 -8.961250000000001Zm46.77 0.12531250000000002 17.622187500000003 8.8359375 -15.7603125 7.915729166666667 -17.189270833333335 -8.670416666666668 15.327395833333334 -8.08125ZM50.08322916666667 1.0416666666666667l15.86447916666667 7.953510416666667L50.73614583333333 17.116666666666667 34.38916666666667 8.872166666666667 50.08322916666667 1.0416666666666667Z" stroke-width="1.0417"></path>
  <path fill="#4d77cf" d="m46.75875 48.24958333333334 -12.945104166666669 -6.508020833333334v28.130625000000002S17.98229166666667 36.18687500000001 16.515625 33.161145833333336c-0.18927083333333336 -0.3903125 -0.9676041666666667 -0.8185416666666668 -1.1663541666666666 -0.9226041666666668 -2.8388541666666667 -1.490416666666667 -11.156666666666668 -5.70375 -11.156666666666668 -5.70375v49.698750000000004l11.506770833333334 6.150833333333334V56.40656250000001s15.6634375 30.098958333333336 15.821875 30.427708333333335c0.1585416666666667 0.32885416666666667 1.7317708333333335 3.5012500000000006 3.411354166666667 4.615520833333334 2.238020833333333 1.4809375 11.828541666666666 7.248541666666667 11.828541666666666 7.248541666666667l-0.0023958333333333336 -50.448750000000004Z" stroke-width="1.0417"></path>
</svg>