<svg width="100px" height="100px" viewBox="-0.5 0 33 33" xmlns="http://www.w3.org/2000/svg" preserveAspectRatio="xMinYMin meet"><path d="M31.876 19.761c-0.192 -0.581 -0.695 -0.986 -1.345 -1.083 -0.306 -0.046 -0.657 -0.026 -1.073 0.059 -0.724 0.149 -1.261 0.206 -1.653 0.217 1.48 -2.498 2.683 -5.347 3.375 -8.028 1.12 -4.336 0.521 -6.311 -0.178 -7.205C29.152 1.356 26.452 0.085 23.194 0.046c-1.738 -0.021 -3.264 0.322 -4.059 0.569 -0.741 -0.131 -1.538 -0.204 -2.374 -0.217 -1.567 -0.025 -2.952 0.317 -4.135 1.019 -0.655 -0.222 -1.706 -0.534 -2.92 -0.733 -2.855 -0.469 -5.157 -0.103 -6.84 1.086C0.828 3.209 -0.117 5.71 0.058 9.204c0.056 1.109 0.676 4.484 1.653 7.685 0.561 1.84 1.16 3.368 1.78 4.541 0.878 1.664 1.818 2.644 2.873 2.997 0.591 0.197 1.666 0.335 2.796 -0.606 0.143 0.173 0.334 0.346 0.588 0.506 0.322 0.203 0.716 0.369 1.109 0.468 1.418 0.354 2.745 0.266 3.878 -0.231 0.007 0.202 0.012 0.394 0.017 0.56 0.007 0.27 0.015 0.534 0.025 0.781 0.067 1.672 0.181 2.972 0.518 3.881 0.018 0.05 0.043 0.126 0.07 0.207 0.168 0.515 0.449 1.377 1.165 2.051 0.741 0.699 1.637 0.913 2.457 0.913 0.411 0 0.804 -0.054 1.149 -0.128 1.228 -0.263 2.622 -0.664 3.63 -2.1 0.954 -1.357 1.417 -3.402 1.501 -6.624q0.016 -0.137 0.03 -0.261l0.02 -0.17 0.225 0.02 0.058 0.004c1.25 0.057 2.779 -0.208 3.718 -0.644 0.742 -0.344 3.119 -1.599 2.559 -3.294"/><path d="M29.738 20.09c-3.717 0.767 -3.973 -0.492 -3.973 -0.492 3.925 -5.824 5.566 -13.217 4.15 -15.026 -3.863 -4.936 -10.55 -2.601 -10.662 -2.541l-0.036 0.006c-0.735 -0.152 -1.556 -0.243 -2.48 -0.258 -1.682 -0.028 -2.958 0.441 -3.926 1.175 0 0 -11.929 -4.914 -11.374 6.181 0.118 2.36 3.383 17.859 7.277 13.178 1.423 -1.712 2.799 -3.159 2.799 -3.159 0.683 0.454 1.501 0.685 2.358 0.602l0.067 -0.057c-0.021 0.212 -0.011 0.42 0.027 0.666 -1.003 1.121 -0.708 1.318 -2.714 1.73 -2.029 0.418 -0.837 1.163 -0.059 1.357 0.944 0.236 3.127 0.57 4.602 -1.495l-0.059 0.236c0.393 0.315 0.669 2.048 0.623 3.619 -0.046 1.571 -0.077 2.65 0.233 3.492 0.31 0.843 0.619 2.738 3.255 2.173 2.203 -0.472 3.345 -1.696 3.503 -3.736 0.113 -1.451 0.368 -1.236 0.384 -2.533l0.205 -0.614c0.236 -1.967 0.037 -2.601 1.395 -2.306l0.33 0.029c0.999 0.045 2.306 -0.161 3.074 -0.517 1.652 -0.767 2.632 -2.047 1.003 -1.711z" fill="#336791"/><path d="M13.509 10.191c-0.335 -0.047 -0.638 -0.004 -0.792 0.113 -0.086 0.065 -0.113 0.141 -0.12 0.193 -0.019 0.138 0.077 0.291 0.137 0.37 0.168 0.223 0.414 0.376 0.657 0.41q0.053 0.007 0.105 0.007c0.406 0 0.774 -0.316 0.807 -0.549 0.041 -0.292 -0.383 -0.487 -0.794 -0.544m11.098 0.009c-0.032 -0.229 -0.439 -0.294 -0.826 -0.24 -0.386 0.054 -0.76 0.228 -0.729 0.457 0.025 0.178 0.347 0.483 0.728 0.483q0.048 0 0.098 -0.007c0.255 -0.035 0.441 -0.197 0.53 -0.29 0.135 -0.142 0.213 -0.3 0.199 -0.403" fill="#FFF"/><path d="M30.975 20.003c-0.142 -0.429 -0.598 -0.567 -1.356 -0.41 -2.251 0.465 -3.057 0.143 -3.321 -0.052 1.749 -2.665 3.188 -5.886 3.965 -8.892 0.368 -1.424 0.571 -2.746 0.588 -3.824 0.018 -1.183 -0.183 -2.052 -0.599 -2.583 -1.675 -2.141 -4.134 -3.289 -7.11 -3.32 -2.046 -0.023 -3.775 0.501 -4.11 0.648 -0.706 -0.175 -1.475 -0.283 -2.313 -0.297 -1.536 -0.025 -2.864 0.343 -3.963 1.093 -0.477 -0.178 -1.712 -0.601 -3.221 -0.845 -2.609 -0.42 -4.682 -0.102 -6.162 0.946 -1.765 1.251 -2.58 3.486 -2.422 6.645 0.053 1.063 0.659 4.332 1.614 7.462 1.258 4.12 2.625 6.453 4.064 6.933 0.168 0.056 0.362 0.095 0.577 0.095 0.525 0 1.168 -0.236 1.837 -1.041a66.25 66.25 0 0 1 2.533 -2.866c0.566 0.303 1.187 0.473 1.822 0.49q0.002 0.025 0.004 0.05a14.75 14.75 0 0 0 -0.321 0.397c-0.44 0.559 -0.532 0.675 -1.949 0.967 -0.403 0.083 -1.474 0.304 -1.49 1.054 -0.017 0.82 1.266 1.164 1.412 1.201 0.509 0.128 1 0.19 1.468 0.19 1.138 0 2.139 -0.374 2.939 -1.098 -0.025 2.923 0.097 5.804 0.448 6.681 0.287 0.719 0.99 2.474 3.208 2.474 0.326 0 0.684 -0.038 1.078 -0.122 2.315 -0.496 3.321 -1.52 3.709 -3.775 0.208 -1.206 0.565 -4.085 0.733 -5.629 0.354 0.111 0.811 0.161 1.304 0.161 1.029 0 2.216 -0.219 2.961 -0.564 0.837 -0.389 2.346 -1.342 2.072 -2.17m-5.513 -10.435c-0.008 0.456 -0.07 0.87 -0.137 1.302 -0.072 0.465 -0.146 0.945 -0.164 1.528 -0.018 0.568 0.052 1.157 0.121 1.728 0.139 1.153 0.281 2.339 -0.27 3.51a4.625 4.625 0 0 1 -0.244 -0.501c-0.068 -0.166 -0.217 -0.432 -0.422 -0.8 -0.8 -1.435 -2.673 -4.794 -1.714 -6.165 0.286 -0.408 1.01 -0.828 2.83 -0.602m-2.205 -7.723c2.667 0.059 4.776 1.056 6.27 2.965 1.145 1.464 -0.116 8.125 -3.768 13.871a21.375 21.375 0 0 0 -0.111 -0.14l-0.046 -0.058c0.944 -1.558 0.759 -3.1 0.595 -4.467 -0.068 -0.561 -0.131 -1.091 -0.115 -1.589 0.017 -0.527 0.086 -0.98 0.154 -1.417 0.083 -0.539 0.167 -1.097 0.144 -1.755 0.017 -0.069 0.024 -0.15 0.015 -0.247 -0.059 -0.631 -0.779 -2.518 -2.247 -4.226 -0.803 -0.934 -1.973 -1.98 -3.572 -2.685 0.688 -0.142 1.628 -0.275 2.68 -0.252M8.334 21.972c-0.738 0.887 -1.247 0.717 -1.414 0.661 -1.091 -0.364 -2.357 -2.671 -3.474 -6.328 -0.966 -3.165 -1.53 -6.347 -1.575 -7.239 -0.141 -2.822 0.543 -4.789 2.034 -5.846 2.425 -1.72 6.413 -0.691 8.016 -0.168 -0.023 0.023 -0.047 0.044 -0.07 0.067 -2.63 2.655 -2.567 7.192 -2.561 7.47 0 0.107 0.009 0.259 0.021 0.467 0.045 0.763 0.13 2.183 -0.096 3.792 -0.209 1.495 0.252 2.958 1.264 4.014a4.5 4.5 0 0 0 0.327 0.308c-0.451 0.482 -1.43 1.55 -2.472 2.803m2.81 -3.749c-0.816 -0.851 -1.186 -2.035 -1.017 -3.249 0.237 -1.699 0.15 -3.179 0.103 -3.974 -0.007 -0.111 -0.013 -0.209 -0.016 -0.286 0.384 -0.341 2.164 -1.294 3.434 -1.004 0.579 0.133 0.932 0.527 1.079 1.206 0.759 3.513 0.101 4.977 -0.429 6.154 -0.109 0.242 -0.212 0.471 -0.3 0.709l-0.068 0.183c-0.173 0.463 -0.334 0.894 -0.433 1.303 -0.867 -0.003 -1.711 -0.373 -2.352 -1.042zm0.133 4.737c-0.253 -0.063 -0.481 -0.173 -0.615 -0.264 0.112 -0.052 0.31 -0.124 0.655 -0.195 1.667 -0.343 1.925 -0.585 2.487 -1.299 0.129 -0.164 0.275 -0.349 0.477 -0.575l0 0c0.301 -0.338 0.439 -0.28 0.689 -0.176 0.203 0.084 0.4 0.338 0.48 0.617 0.038 0.132 0.08 0.383 -0.059 0.578 -1.175 1.645 -2.886 1.623 -4.115 1.316m8.725 8.119c-2.039 0.437 -2.762 -0.604 -3.237 -1.793 -0.307 -0.768 -0.458 -4.231 -0.351 -8.056 0.001 -0.051 -0.006 -0.1 -0.02 -0.146a1.925 1.925 0 0 0 -0.057 -0.27c-0.159 -0.556 -0.547 -1.022 -1.013 -1.215 -0.185 -0.077 -0.524 -0.217 -0.932 -0.113 0.087 -0.358 0.238 -0.763 0.402 -1.202l0.069 -0.184c0.077 -0.208 0.174 -0.423 0.277 -0.651 0.554 -1.231 1.313 -2.917 0.489 -6.726 -0.308 -1.427 -1.339 -2.123 -2.901 -1.962 -0.936 0.097 -1.793 0.475 -2.22 0.691 -0.092 0.046 -0.176 0.091 -0.254 0.135 0.119 -1.438 0.57 -4.124 2.255 -5.824 1.061 -1.07 2.474 -1.599 4.196 -1.57 3.393 0.056 5.568 1.796 6.796 3.247 1.058 1.25 1.631 2.51 1.859 3.189 -1.719 -0.175 -2.889 0.165 -3.482 1.012 -1.29 1.843 0.706 5.421 1.664 7.141 0.176 0.315 0.328 0.588 0.375 0.703 0.312 0.757 0.717 1.262 1.012 1.631 0.09 0.113 0.178 0.223 0.245 0.318 -0.521 0.15 -1.456 0.497 -1.371 2.231 -0.069 0.87 -0.558 4.943 -0.806 6.382 -0.328 1.901 -1.028 2.609 -2.995 3.031zm8.513 -9.742c-0.532 0.247 -1.424 0.432 -2.27 0.472 -0.935 0.044 -1.411 -0.105 -1.523 -0.196 -0.052 -1.081 0.35 -1.193 0.775 -1.313 0.067 -0.019 0.132 -0.037 0.195 -0.059q0.059 0.048 0.129 0.095c0.751 0.496 2.092 0.549 3.984 0.159l0.021 -0.004c-0.255 0.239 -0.692 0.559 -1.311 0.847" fill="#FFF"/></svg>