<svg xmlns="http://www.w3.org/2000/svg" fill="none" viewBox="0 0 100 100" id="Postman-Icon--Streamline-Svg-Logos" height="100" width="100">
  <desc>
    Postman Icon Streamline Icon: https://streamlinehq.com
  </desc>
  <path fill="#ff6c37" d="M98.55791666666667 56.2165625C101.98437500000001 29.39229166666667 83.04093750000001 4.868552083333333 56.26552083333333 1.4420833333333336 29.49010416666667 -1.984385416666667 4.868552083333333 16.9590625 1.4420833333333336 43.734479166666674c-3.4264687500000006 26.775312500000002 15.516979166666667 51.34802083333334 42.29239583333334 54.823437500000004 26.824270833333337 3.4264583333333336 51.34802083333334 -15.516979166666667 54.823437500000004 -42.34135416666667Z" stroke-width="1.0417"></path>
  <path fill="#ffffff" d="M67.67020833333333 32.47604166666667 47.013541666666676 53.13270833333333l-5.825 -5.825C61.502604166666664 26.993645833333336 63.50958333333334 28.755833333333335 67.67020833333333 32.47604166666667Z" stroke-width="1.0417"></path>
  <path fill="#ff6c37" d="M47.014375 53.622291666666676c-0.146875 0 -0.24479166666666666 -0.04895833333333334 -0.3426041666666667 -0.146875l-5.873958333333334 -5.825c-0.19583333333333336 -0.19583333333333336 -0.19583333333333336 -0.4894791666666667 0 -0.6853125000000001 20.65666666666667 -20.65666666666667 22.81041666666667 -18.698750000000004 27.16697916666667 -14.782708333333334 0.09791666666666668 0.09791666666666668 0.146875 0.1957291666666667 0.146875 0.3426041666666667 0 0.146875 -0.04895833333333334 0.24479166666666666 -0.146875 0.3427083333333334L47.308125000000004 53.47541666666667c-0.04895833333333334 0.09791666666666668 -0.19583333333333336 0.146875 -0.29375 0.146875Zm-5.1396875 -6.314479166666667 5.1396875 5.1396875L66.936875 32.525000000000006c-3.622291666666667 -3.2306250000000003 -6.069791666666667 -4.2096875 -25.0621875 14.7828125Z" stroke-width="1.0417"></path>
  <path fill="#ffffff" d="m52.9365625 59.05510416666667 -5.629270833333333 -5.629166666666667 20.656770833333336 -20.65666666666667c5.53125 5.580208333333334 -2.7412500000000004 14.6359375 -15.0275 26.285833333333336Z" stroke-width="1.0417"></path>
  <path fill="#ff6c37" d="M52.93708333333334 59.5453125c-0.14677083333333335 0 -0.2446875 -0.04895833333333334 -0.3426041666666667 -0.14677083333333335l-5.629166666666667 -5.629270833333333c-0.09791666666666668 -0.09781250000000001 -0.09791666666666668 -0.1957291666666667 -0.09791666666666668 -0.3426041666666667 0 -0.146875 0.04895833333333334 -0.24479166666666666 0.146875 -0.3426041666666667l20.65666666666667 -20.656770833333336c0.1957291666666667 -0.1957291666666667 0.4894791666666667 -0.1957291666666667 0.6853125000000001 0 1.2726041666666668 1.1747916666666667 1.9579166666666667 2.8390625 1.9089583333333335 4.552291666666666 -0.09791666666666668 5.4334375 -6.265520833333333 12.335312500000002 -16.936458333333334 22.418958333333336 -0.146875 0.09781250000000001 -0.29375 0.14677083333333335 -0.3916666666666667 0.14677083333333335Zm-4.943854166666667 -6.118645833333334c3.1327083333333334 3.1816666666666666 4.454375000000001 4.454375000000001 4.943854166666667 4.943854166666667 8.223541666666668 -7.831875000000001 16.202291666666667 -15.859583333333333 16.251250000000002 -21.3909375 0.04895833333333334 -1.2726041666666668 -0.44052083333333336 -2.5453125 -1.2727083333333333 -3.524270833333334L47.99322916666667 53.42666666666667Z" stroke-width="1.0417"></path>
  <path fill="#ffffff" d="m41.2865625 47.45427083333334 4.160729166666667 4.160729166666667c0.09791666666666668 0.09791666666666668 0.09791666666666668 0.19583333333333336 0 0.29364583333333333 -0.04895833333333334 0.04895833333333334 -0.04895833333333334 0.04895833333333334 -0.09791666666666668 0.04895833333333334l-8.615104166666667 1.860104166666667c-0.44052083333333336 0.04895833333333334 -0.8320833333333334 -0.2446875 -0.9300000000000002 -0.6853125000000001 -0.04895833333333334 -0.2446875 0.04895833333333334 -0.4894791666666667 0.19583333333333336 -0.6363541666666667l4.9928125 -4.9928125c0.09791666666666668 -0.09791666666666668 0.2446875 -0.146875 0.29364583333333333 -0.04895833333333334Z" stroke-width="1.0417"></path>
  <path fill="#ff6c37" d="M36.587604166666665 54.307187500000005c-0.7341666666666667 0 -1.2727083333333333 -0.5873958333333333 -1.2727083333333333 -1.3216666666666668 0 -0.3426041666666667 0.146875 -0.6853125000000001 0.3916666666666667 -0.9300000000000002l4.9928125 -4.992916666666667c0.29375 -0.2446875 0.6853125000000001 -0.2446875 0.9789583333333334 0l4.160729166666667 4.160729166666667c0.29375 0.24479166666666666 0.29375 0.6853125000000001 0 0.9789583333333334 -0.09791666666666668 0.09791666666666668 -0.1957291666666667 0.146875 -0.3426041666666667 0.19583333333333336l-8.615104166666667 1.860104166666667c-0.09791666666666668 0 -0.19583333333333336 0.04895833333333334 -0.29375 0.04895833333333334Zm4.552291666666666 -6.314479166666667 -4.7969791666666675 4.7969791666666675c-0.09791666666666668 0.09791666666666668 -0.146875 0.24479166666666666 -0.04895833333333334 0.3916666666666667 0.04895833333333334 0.14677083333333335 0.1957291666666667 0.1957291666666667 0.3426041666666667 0.14677083333333335l8.076666666666666 -1.7621875 -3.5733333333333337 -3.5732291666666667Z" stroke-width="1.0417"></path>
  <path fill="#ffffff" d="M78.58677083333333 21.02166666666667c-3.1327083333333334 -3.0348958333333336 -8.174583333333334 -2.936979166666667 -11.209375 0.2446875 -3.0348958333333336 3.1817708333333337 -2.936979166666667 8.174583333333334 0.2446875 11.209479166666668 2.5943750000000003 2.4964583333333334 6.5103125 2.936979166666667 9.594166666666668 1.076875l-5.580312500000001 -5.580208333333334 6.950833333333334 -6.950833333333334Z" stroke-width="1.0417"></path>
  <path fill="#ff6c37" d="M73.104375 35.16802083333334c-4.6502083333333335 0 -8.419270833333334 -3.7691666666666666 -8.419270833333334 -8.419375s3.7690625000000004 -8.419270833333334 8.419270833333334 -8.419270833333334c2.15375 0 4.258645833333334 0.8320833333333334 5.825 2.3495833333333334 0.09791666666666668 0.09791666666666668 0.146875 0.19583333333333336 0.146875 0.3426041666666667 0 0.146875 -0.04895833333333334 0.24479166666666666 -0.146875 0.3427083333333334l-6.608229166666667 6.608125 5.188645833333333 5.188645833333333c0.19583333333333336 0.19583333333333336 0.19583333333333336 0.4894791666666667 0 0.6853125000000001 -0.04895833333333334 0.04895833333333334 -0.04895833333333334 0.04895833333333334 -0.09781250000000001 0.09791666666666668 -1.2727083333333333 0.7832291666666668 -2.790208333333333 1.2237500000000001 -4.307604166666667 1.2237500000000001Zm0 -15.810729166666668c-4.111770833333334 0 -7.4403125 3.3285416666666667 -7.391354166666667 7.4403125 0 4.111770833333334 3.3285416666666667 7.4403125 7.4403125 7.391354166666667 1.1258333333333335 0 2.251666666666667 -0.2446875 3.2795833333333335 -0.7831250000000001l-5.1396875 -5.090729166666668c-0.09791666666666668 -0.09791666666666668 -0.146875 -0.19583333333333336 -0.146875 -0.3427083333333334 0 -0.146875 0.04895833333333334 -0.2446875 0.146875 -0.3426041666666667l6.559270833333334 -6.559270833333334c-1.3216666666666668 -1.1258333333333335 -2.9859375 -1.7132291666666668 -4.748125000000001 -1.7132291666666668Z" stroke-width="1.0417"></path>
  <path fill="#ffffff" d="m78.73260416666666 21.16822916666667 -0.09791666666666668 -0.09791666666666668 -6.999791666666668 6.901875 5.5313541666666675 5.5313541666666675c0.5384375 -0.3427083333333334 1.076875 -0.7342708333333333 1.5173958333333335 -1.1747916666666667 3.1328125 -3.0838541666666672 3.1328125 -8.076666666666666 0.04895833333333334 -11.160520833333335Z" stroke-width="1.0417"></path>
  <path fill="#ff6c37" d="M77.21583333333334 34.04177083333334c-0.14677083333333335 0 -0.2446875 -0.04895833333333334 -0.3426041666666667 -0.146875l-5.580208333333334 -5.580208333333334c-0.09791666666666668 -0.09791666666666668 -0.146875 -0.19583333333333336 -0.146875 -0.3426041666666667 0 -0.146875 0.04895833333333334 -0.24479166666666666 0.146875 -0.3427083333333334l6.950833333333334 -6.950833333333334c0.1957291666666667 -0.1957291666666667 0.4894791666666667 -0.1957291666666667 0.6852083333333334 0l0.146875 0.09791666666666668c3.2795833333333335 3.2795833333333335 3.2796875 8.566145833333334 0.04895833333333334 11.894687500000002 -0.4894791666666667 0.4895833333333333 -1.0279166666666668 0.9301041666666667 -1.6153125000000002 1.2727083333333333 -0.146875 0.04895833333333334 -0.24479166666666666 0.09791666666666668 -0.29375 0.09791666666666668Zm-4.894895833333333 -6.069687500000001 4.943854166666667 4.943854166666667c0.3916666666666667 -0.24479166666666666 0.7832291666666668 -0.5873958333333333 1.076875 -0.8810416666666667 2.790208333333333 -2.790208333333333 2.936979166666667 -7.3425 0.24479166666666666 -10.279479166666667l-6.265520833333333 6.216666666666667Z" stroke-width="1.0417"></path>
  <path fill="#ffffff" d="M68.50270833333335 33.357395833333335c-1.1747916666666667 -1.1747916666666667 -3.0838541666666672 -1.1747916666666667 -4.258645833333334 0L45.79010416666667 51.811354166666675l3.0838541666666672 3.0838541666666672 19.530833333333337 -17.132395833333334c1.2727083333333333 -1.076875 1.3705208333333336 -2.9859375 0.29364583333333333 -4.258541666666667 -0.09781250000000001 -0.04895833333333334 -0.14677083333333335 -0.09791666666666668 -0.1957291666666667 -0.146875Z" stroke-width="1.0417"></path>
  <path fill="#ff6c37" d="M48.82479166666667 55.384375c-0.146875 0 -0.24479166666666666 -0.04895833333333334 -0.3427083333333334 -0.146875l-3.08375 -3.0838541666666672c-0.19583333333333336 -0.1957291666666667 -0.19583333333333336 -0.4894791666666667 0 -0.6852083333333334l18.453958333333336 -18.453958333333336c1.3705208333333336 -1.3706250000000002 3.5733333333333337 -1.3706250000000002 4.943854166666667 0 1.3706250000000002 1.3705208333333336 1.3706250000000002 3.5732291666666667 0 4.943854166666667 -0.04895833333333334 0.04895833333333334 -0.09791666666666668 0.09791666666666668 -0.14677083333333335 0.146875L49.118437500000006 55.237500000000004c-0.04895833333333334 0.09791666666666668 -0.14677083333333335 0.146875 -0.29364583333333333 0.146875Zm-2.3495833333333334 -3.5733333333333337 2.398541666666667 2.398541666666667 19.18822916666667 -16.838645833333334c1.076875 -0.8810416666666667 1.1747916666666667 -2.4964583333333334 0.29364583333333333 -3.5733333333333337 -0.8810416666666667 -1.076875 -2.4964583333333334 -1.1747916666666667 -3.5733333333333337 -0.29364583333333333 -0.04895833333333334 0.04895833333333334 -0.09791666666666668 0.09791666666666668 -0.1957291666666667 0.14677083333333335L46.475208333333335 51.81104166666667Z" stroke-width="1.0417"></path>
  <path fill="#ffffff" d="M31.64354166666667 72.810625c-0.19583333333333336 0.09791666666666668 -0.29364583333333333 0.29375 -0.24479166666666666 0.4894791666666667l0.8321875000000001 3.524375c0.19583333333333336 0.4895833333333333 -0.09791666666666668 1.0769791666666668 -0.6363541666666667 1.2237500000000001 -0.39156250000000004 0.146875 -0.8320833333333334 0 -1.076875 -0.29364583333333333l-5.384479166666667 -5.335520833333334 17.572916666666668 -17.572916666666668 6.069687500000001 0.09791666666666668 4.111770833333334 4.111770833333334c-0.9789583333333334 0.8321875000000001 -6.901875 6.559270833333334 -21.244062500000002 13.754791666666668Z" stroke-width="1.0417"></path>
  <path fill="#ff6c37" d="M31.251875000000002 78.53739583333333c-0.39156250000000004 0 -0.7831250000000001 -0.14677083333333335 -1.0279166666666668 -0.44052083333333336l-5.335520833333334 -5.335520833333334c-0.09791666666666668 -0.09781250000000001 -0.14677083333333335 -0.1957291666666667 -0.14677083333333335 -0.3426041666666667 0 -0.146875 0.04885416666666667 -0.24479166666666666 0.14677083333333335 -0.3426041666666667l17.572916666666668 -17.572916666666668c0.09791666666666668 -0.09791666666666668 0.2446875 -0.146875 0.3426041666666667 -0.146875l6.069791666666667 0.09791666666666668c0.146875 0 0.2446875 0.04895833333333334 0.3426041666666667 0.146875l4.111770833333334 4.111770833333334c0.09791666666666668 0.09791666666666668 0.146875 0.2446875 0.146875 0.39156250000000004 0 0.146875 -0.04895833333333334 0.24479166666666666 -0.19583333333333336 0.3426041666666667l-0.3426041666666667 0.29375c-5.188645833333333 4.552291666666666 -12.237395833333334 9.104583333333332 -20.999375000000004 13.461145833333335l0.8321875000000001 3.475416666666667c0.14677083333333335 0.6363541666666667 -0.146875 1.3215625 -0.7342708333333333 1.6642708333333334 -0.29375 0.146875 -0.5384375 0.1957291666666667 -0.7832291666666668 0.1957291666666667Zm-5.384375 -6.118645833333334 5.0417708333333335 4.9928125c0.146875 0.24479166666666666 0.44052083333333336 0.3427083333333334 0.6853125000000001 0.19583333333333336 0.2446875 -0.146875 0.3426041666666667 -0.44052083333333336 0.1957291666666667 -0.6853125000000001l-0.8320833333333334 -3.524375c-0.09791666666666668 -0.44052083333333336 0.09791666666666668 -0.8320833333333334 0.4894791666666667 -1.0279166666666668 8.664062500000002 -4.356458333333333 15.663854166666669 -8.859895833333333 20.803541666666668 -13.314270833333335l-3.622291666666667 -3.622291666666667 -5.629166666666667 -0.09781250000000001 -17.132291666666667 17.083333333333332Z" stroke-width="1.0417"></path>
  <path fill="#ffffff" d="m20.972395833333337 76.62833333333333 4.2096875 -4.209583333333334 6.265520833333333 6.265520833333333 -9.985729166666667 -0.6853125000000001c-0.44052083333333336 -0.04895833333333334 -0.7342708333333333 -0.44052083333333336 -0.6853125000000001 -0.8810416666666667 0 -0.19583333333333336 0.04895833333333334 -0.3916666666666667 0.19583333333333336 -0.4895833333333333Z" stroke-width="1.0417"></path>
  <path fill="#ff6c37" d="m31.448541666666667 79.12458333333333 -10.0346875 -0.6853125000000001c-0.7342708333333333 -0.04885416666666667 -1.2237500000000001 -0.6852083333333334 -1.1747916666666667 -1.4194791666666668 0.04895833333333334 -0.29375 0.146875 -0.5873958333333333 0.39156250000000004 -0.7832291666666668l4.2096875 -4.209583333333334c0.19583333333333336 -0.19583333333333336 0.4894791666666667 -0.19583333333333336 0.6853125000000001 0l6.265520833333333 6.265520833333333c0.146875 0.14677083333333335 0.19583333333333336 0.3426041666666667 0.09791666666666668 0.5384375 -0.09791666666666668 0.1957291666666667 -0.24479166666666666 0.29364583333333333 -0.44052083333333336 0.29364583333333333Zm-6.265625 -6.0207291666666665 -3.866979166666667 3.866979166666667c-0.146875 0.09791666666666668 -0.146875 0.3426041666666667 0 0.44052083333333336 0.04895833333333334 0.04895833333333334 0.09791666666666668 0.09791666666666668 0.19583333333333336 0.09791666666666668l8.664062500000002 0.5873958333333333 -4.992916666666667 -4.9928125Z" stroke-width="1.0417"></path>
  <path fill="#ff6c37" d="M40.993437500000006 57.09729166666667c-0.29364583333333333 0 -0.4894791666666667 -0.2446875 -0.4894791666666667 -0.4894791666666667 0 -0.146875 0.04895833333333334 -0.2446875 0.146875 -0.3426041666666667l4.748020833333333 -4.748125000000001c0.19583333333333336 -0.19583333333333336 0.4895833333333333 -0.19583333333333336 0.6853125000000001 0l3.0838541666666672 3.0838541666666672c0.146875 0.14677083333333335 0.19583333333333336 0.29364583333333333 0.146875 0.4894791666666667 -0.04895833333333334 0.146875 -0.19583333333333336 0.29364583333333333 -0.3916666666666667 0.3426041666666667l-7.831875000000001 1.6642708333333334 -0.09791666666666668 0Zm4.748125000000001 -4.552291666666666 -3.230729166666667 3.230729166666667 5.2865625000000005 -1.1258333333333335 -2.0558333333333336 -2.104895833333334Z" stroke-width="1.0417"></path>
  <path fill="#ffffff" d="m48.77635416666667 54.94375000000001 -5.384375 1.1747916666666667c-0.3916666666666667 0.09791666666666668 -0.7832291666666668 -0.146875 -0.8811458333333334 -0.5384375 -0.04895833333333334 -0.24479166666666666 0 -0.4894791666666667 0.19583333333333336 -0.6853125000000001l2.9859375 -2.9859375 3.08375 3.0348958333333336Z" stroke-width="1.0417"></path>
  <path fill="#ff6c37" d="M43.29375 56.6078125c-0.6853125000000001 0 -1.2237500000000001 -0.5384375 -1.2237500000000001 -1.2237500000000001 0 -0.3426041666666667 0.146875 -0.6363541666666667 0.3426041666666667 -0.8810416666666667l2.9859375 -2.9859375c0.19583333333333336 -0.19583333333333336 0.4894791666666667 -0.19583333333333336 0.6853125000000001 0l3.0838541666666672 3.0838541666666672c0.146875 0.14677083333333335 0.1957291666666667 0.29364583333333333 0.146875 0.4894791666666667 -0.04895833333333334 0.146875 -0.19583333333333336 0.29364583333333333 -0.3916666666666667 0.3426041666666667l-5.384375 1.1747916666666667 -0.24479166666666666 0Zm2.4475000000000002 -4.062812500000001 -2.6433333333333335 2.6433333333333335c-0.09791666666666668 0.09791666666666668 -0.09791666666666668 0.1957291666666667 -0.04895833333333334 0.29364583333333333 0.04895833333333334 0.09791666666666668 0.146875 0.146875 0.29375 0.146875l4.503333333333334 -0.9789583333333334 -2.104791666666667 -2.104895833333334Z" stroke-width="1.0417"></path>
  <path fill="#ff6c37" d="M78.7821875 25.86822916666667c-0.09791666666666668 -0.29364583333333333 -0.44062500000000004 -0.44052083333333336 -0.7342708333333333 -0.3426041666666667 -0.29375 0.09791666666666668 -0.44052083333333336 0.44052083333333336 -0.3426041666666667 0.7342708333333333 0 0.04885416666666667 0.04895833333333334 0.09781250000000001 0.04895833333333334 0.14677083333333335 0.29364583333333333 0.5873958333333333 0.1957291666666667 1.3216666666666668 -0.19583333333333336 1.860104166666667 -0.19583333333333336 0.24479166666666666 -0.146875 0.5873958333333333 0.04895833333333334 0.7832291666666668 0.2446875 0.1957291666666667 0.5873958333333333 0.14677083333333335 0.7831250000000001 -0.09791666666666668 0.7342708333333333 -0.9301041666666667 0.8811458333333334 -2.104791666666667 0.3916666666666667 -3.0838541666666672Z" stroke-width="1.0417"></path>
</svg>