<svg width="100" height="104.762" viewBox="0 0 100 104.762" fill="white" xmlns="http://www.w3.org/2000/svg">
  <rect width="100" height="104.762" fill="white"/>
  <path d="M75.324 0.995a24.462 24.462 0 0 0 -25.333 20.795c-0.076 0.567 -0.186 1.11 -0.276 1.657 -2.848 15.152 -16.1 26.624 -32.024 26.624a32.381 32.381 0 0 1 -15.652 -4.005 0.829 0.829 0 0 0 -1.238 0.729v52.371h48.9v-36.819a12.252 12.252 0 0 1 12.224 -12.276h12.219c13.838 0 24.976 -11.524 24.429 -25.548C98.086 11.905 87.89 1.595 75.324 0.995" fill="#0D0D0D"/>
</svg>
