<svg xmlns="http://www.w3.org/2000/svg" xmlns:xlink="http://www.w3.org/1999/xlink" version="1.1" width="100" height="100" viewBox="0 0 100 100" xml:space="preserve"><g style="stroke: none; stroke-width: 0; stroke-dasharray: none; stroke-linecap: butt; stroke-linejoin: miter; stroke-miterlimit: 10; fill: none; fill-rule: nonzero; opacity: 1;" transform="translate(1.407 1.407)scale(2.81)"><path d="M30.486 14.536a10.625 10.625 0 0 0 -0.767 -3.076C28.108 7.582 24.285 4.855 19.824 4.855c-2.081 0 -4.023 0.594 -5.667 1.621 -2.539 1.587 -4.366 4.21 -4.889 7.276h-1.221C3.818 13.752 0.391 17.179 0.391 21.407s3.428 7.656 7.656 7.656h19.064C31.338 29.063 34.766 25.636 34.766 21.407c0 -3.016 -1.745 -5.623 -4.279 -6.871" style="stroke: none; stroke-width: 1; stroke-dasharray: none; stroke-linecap: butt; stroke-linejoin: miter; stroke-miterlimit: 10; fill: rgb(105,227,255); fill-rule: nonzero; opacity: 1;" stroke-linecap="round"/><path d="M4.457 2.726a0.176 0.176 0 0 0 0.111 -0.167 0.176 0.176 0 0 0 -0.111 -0.167 0.209 0.209 0 0 1 -0.114 -0.275l0.137 -0.332a0.211 0.211 0 0 1 0.276 -0.114 0.176 0.176 0 0 0 0.196 -0.039 0.176 0.176 0 0 0 0.039 -0.196 0.211 0.211 0 0 1 0.114 -0.275l0.332 -0.137a0.211 0.211 0 0 1 0.276 0.114c0.043 0.103 0.138 0.111 0.167 0.111 0.028 0 0.124 -0.008 0.167 -0.111a0.209 0.209 0 0 1 0.275 -0.114l0.332 0.137a0.209 0.209 0 0 1 0.114 0.275 0.176 0.176 0 0 0 0.039 0.196c0.02 0.02 0.093 0.082 0.196 0.039a0.211 0.211 0 0 1 0.275 0.114l0.137 0.332a0.211 0.211 0 0 1 -0.114 0.275c-0.103 0.043 -0.111 0.138 -0.111 0.167s0.008 0.124 0.111 0.167a0.211 0.211 0 0 1 0.114 0.276l-0.137 0.332a0.209 0.209 0 0 1 -0.275 0.114 0.176 0.176 0 0 0 -0.196 0.039 0.176 0.176 0 0 0 -0.039 0.196 0.211 0.211 0 0 1 -0.114 0.276l-0.332 0.137a0.207 0.207 0 0 1 -0.162 0 0.211 0.211 0 0 1 -0.114 -0.114 0.176 0.176 0 0 0 -0.167 -0.111 0.176 0.176 0 0 0 -0.167 0.111 0.211 0.211 0 0 1 -0.276 0.114l-0.332 -0.137a0.211 0.211 0 0 1 -0.114 -0.276 0.176 0.176 0 0 0 -0.039 -0.196 0.176 0.176 0 0 0 -0.196 -0.039 0.211 0.211 0 0 1 -0.275 -0.114l-0.137 -0.332a0.211 0.211 0 0 1 0.114 -0.275m1.423 0.416c0.321 0 0.582 -0.261 0.582 -0.582s-0.261 -0.582 -0.582 -0.582 -0.582 0.261 -0.582 0.582 0.261 0.582 0.582 0.582" style="stroke: none; stroke-width: 1; stroke-dasharray: none; stroke-linecap: butt; stroke-linejoin: miter; stroke-miterlimit: 10; fill: rgb(249,249,249); fill-rule: nonzero; opacity: 1;" transform="translate(-1.944 -1.944)scale(3.89)" stroke-linecap="round"/><path d="M16.409 24.107H13.727a0.391 0.391 0 0 1 -0.391 -0.391V18.414a0.391 0.391 0 0 1 0.391 -0.391h2.682a0.391 0.391 0 1 1 0 0.781H14.117v4.522h2.292a0.391 0.391 0 1 1 0 0.781" style="stroke: none; stroke-width: 1; stroke-dasharray: none; stroke-linecap: butt; stroke-linejoin: miter; stroke-miterlimit: 10; fill: rgb(0,0,0); fill-rule: nonzero; opacity: 1;" stroke-linecap="round"/><path d="M15.596 21.456H13.727a0.391 0.391 0 1 1 0 -0.781h1.869a0.391 0.391 0 1 1 0 0.781" style="stroke: none; stroke-width: 1; stroke-dasharray: none; stroke-linecap: butt; stroke-linejoin: miter; stroke-miterlimit: 10; fill: rgb(0,0,0); fill-rule: nonzero; opacity: 1;" stroke-linecap="round"/><path d="M10.038 21.456h-1.826a0.391 0.391 0 0 1 -0.391 -0.391v-2.652a0.391 0.391 0 0 1 0.391 -0.391h1.826a1.406 1.406 0 0 1 1.405 1.405v0.624a1.406 1.406 0 0 1 -1.405 1.404m-1.435 -0.781h1.435c0.344 0 0.623 -0.28 0.623 -0.623v-0.624c0 -0.344 -0.28 -0.623 -0.623 -0.623h-1.435z" style="stroke: none; stroke-width: 1; stroke-dasharray: none; stroke-linecap: butt; stroke-linejoin: miter; stroke-miterlimit: 10; fill: rgb(0,0,0); fill-rule: nonzero; opacity: 1;" stroke-linecap="round"/><path d="M11.052 24.107a0.391 0.391 0 0 1 -0.391 -0.391v-1.638c0 -0.344 -0.28 -0.623 -0.623 -0.623h-1.435v2.261a0.391 0.391 0 1 1 -0.781 0v-2.652a0.391 0.391 0 0 1 0.391 -0.391h1.826a1.406 1.406 0 0 1 1.405 1.405v1.638a0.391 0.391 0 0 1 -0.391 0.391" style="stroke: none; stroke-width: 1; stroke-dasharray: none; stroke-linecap: butt; stroke-linejoin: miter; stroke-miterlimit: 10; fill: rgb(0,0,0); fill-rule: nonzero; opacity: 1;" stroke-linecap="round"/><path d="M26.944 18.804h-3.345a0.391 0.391 0 1 1 0 -0.781h3.345a0.391 0.391 0 1 1 0 0.781" style="stroke: none; stroke-width: 1; stroke-dasharray: none; stroke-linecap: butt; stroke-linejoin: miter; stroke-miterlimit: 10; fill: rgb(0,0,0); fill-rule: nonzero; opacity: 1;" stroke-linecap="round"/><path d="M25.271 24.107a0.391 0.391 0 0 1 -0.391 -0.391V18.414a0.391 0.391 0 1 1 0.781 0v5.303a0.391 0.391 0 0 1 -0.391 0.391" style="stroke: none; stroke-width: 1; stroke-dasharray: none; stroke-linecap: butt; stroke-linejoin: miter; stroke-miterlimit: 10; fill: rgb(0,0,0); fill-rule: nonzero; opacity: 1;" stroke-linecap="round"/><path d="M20.201 24.107h-0.492c-0.806 0 -1.462 -0.637 -1.462 -1.421a0.391 0.391 0 1 1 0.781 0c0 0.353 0.305 0.64 0.681 0.64h0.492c0.407 0 0.737 -0.311 0.737 -0.694v-0.482c0 -0.383 -0.331 -0.694 -0.737 -0.694h-0.435c-0.838 0 -1.519 -0.662 -1.519 -1.475v-0.482c0 -0.814 0.681 -1.475 1.519 -1.475h0.492c0.806 0 1.462 0.637 1.462 1.421a0.391 0.391 0 1 1 -0.781 0c0 -0.352 -0.305 -0.639 -0.68 -0.639h-0.492c-0.407 0 -0.738 0.311 -0.738 0.694v0.482c0 0.383 0.331 0.694 0.738 0.694h0.435c0.838 0 1.519 0.662 1.519 1.475v0.482c0 0.814 -0.682 1.475 -1.519 1.475" style="stroke: none; stroke-width: 1; stroke-dasharray: none; stroke-linecap: butt; stroke-linejoin: miter; stroke-miterlimit: 10; fill: rgb(0,0,0); fill-rule: nonzero; opacity: 1;" stroke-linecap="round"/><path d="M14.742 32.394a0.391 0.391 0 0 1 -0.391 -0.391V27.843a0.754 0.754 0 0 0 -0.753 -0.753H12.594a0.754 0.754 0 0 0 -0.753 0.753v4.159a0.391 0.391 0 1 1 -0.781 0V27.843a1.535 1.535 0 0 1 1.534 -1.534h1.005a1.535 1.535 0 0 1 1.534 1.534v4.159a0.391 0.391 0 0 1 -0.391 0.391" style="stroke: none; stroke-width: 1; stroke-dasharray: none; stroke-linecap: butt; stroke-linejoin: miter; stroke-miterlimit: 10; fill: rgb(0,0,0); fill-rule: nonzero; opacity: 1;" stroke-linecap="round"/><path d="M14.742 29.742h-3.292a0.391 0.391 0 1 1 0 -0.781h3.292a0.391 0.391 0 1 1 0 0.781" style="stroke: none; stroke-width: 1; stroke-dasharray: none; stroke-linecap: butt; stroke-linejoin: miter; stroke-miterlimit: 10; fill: rgb(0,0,0); fill-rule: nonzero; opacity: 1;" stroke-linecap="round"/><path d="M23.043 32.394a0.391 0.391 0 0 1 -0.391 -0.391V26.7a0.391 0.391 0 1 1 0.781 0v5.303a0.391 0.391 0 0 1 -0.391 0.391" style="stroke: none; stroke-width: 1; stroke-dasharray: none; stroke-linecap: butt; stroke-linejoin: miter; stroke-miterlimit: 10; fill: rgb(0,0,0); fill-rule: nonzero; opacity: 1;" stroke-linecap="round"/><path d="M19.491 30.065h-1.941a0.391 0.391 0 0 1 -0.391 -0.391v-2.975a0.391 0.391 0 0 1 0.391 -0.391h1.941a1.426 1.426 0 0 1 1.424 1.424v0.908a1.426 1.426 0 0 1 -1.424 1.424m-1.551 -0.781h1.551c0.354 0 0.643 -0.288 0.643 -0.643v-0.908c0 -0.354 -0.288 -0.643 -0.643 -0.643h-1.551z" style="stroke: none; stroke-width: 1; stroke-dasharray: none; stroke-linecap: butt; stroke-linejoin: miter; stroke-miterlimit: 10; fill: rgb(0,0,0); fill-rule: nonzero; opacity: 1;" stroke-linecap="round"/><path d="M17.549 32.394a0.391 0.391 0 0 1 -0.391 -0.391v-2.329a0.391 0.391 0 1 1 0.781 0v2.329a0.391 0.391 0 0 1 -0.391 0.391" style="stroke: none; stroke-width: 1; stroke-dasharray: none; stroke-linecap: butt; stroke-linejoin: miter; stroke-miterlimit: 10; fill: rgb(0,0,0); fill-rule: nonzero; opacity: 1;" stroke-linecap="round"/><path d="M27.11 29.454a0.391 0.391 0 1 1 0 -0.781C31.116 28.672 34.375 25.414 34.375 21.408c0 -2.789 -1.556 -5.288 -4.061 -6.521a0.391 0.391 0 0 1 -0.216 -0.313 10.273 10.273 0 0 0 -0.739 -2.964 0.391 0.391 0 1 1 0.722 -0.3 11.055 11.055 0 0 1 0.772 2.974C33.513 15.682 35.156 18.391 35.156 21.407c0 4.437 -3.609 8.046 -8.046 8.046" style="stroke: none; stroke-width: 1; stroke-dasharray: none; stroke-linecap: butt; stroke-linejoin: miter; stroke-miterlimit: 10; fill: rgb(0,0,0); fill-rule: nonzero; opacity: 1;" stroke-linecap="round"/><path d="M8.046 29.454C3.61 29.454 0 25.844 0 21.408s3.61 -8.046 8.046 -8.046h0.897A11.117 11.117 0 0 1 13.95 6.145a0.391 0.391 0 0 1 0.414 0.662c-2.5 1.563 -4.217 4.118 -4.711 7.011 -0.032 0.188 -0.195 0.325 -0.385 0.325h-1.221C4.04 14.143 0.781 17.402 0.781 21.407s3.259 7.265 7.265 7.265a0.391 0.391 0 1 1 0 0.781" style="stroke: none; stroke-width: 1; stroke-dasharray: none; stroke-linecap: butt; stroke-linejoin: miter; stroke-miterlimit: 10; fill: rgb(0,0,0); fill-rule: nonzero; opacity: 1;" stroke-linecap="round"/><path d="M6.241 4.213a0.313 0.313 0 0 1 -0.287 -0.192 0.074 0.074 0 0 0 -0.074 -0.05 0.074 0.074 0 0 0 -0.074 0.05 0.313 0.313 0 0 1 -0.407 0.168l-0.332 -0.137a0.313 0.313 0 0 1 -0.168 -0.407 0.074 0.074 0 0 0 -0.017 -0.087c-0.018 -0.018 -0.047 -0.034 -0.088 -0.018a0.313 0.313 0 0 1 -0.407 -0.168l-0.137 -0.332a0.311 0.311 0 0 1 0.168 -0.407 0.074 0.074 0 0 0 0.05 -0.074 0.074 0.074 0 0 0 -0.049 -0.074 0.313 0.313 0 0 1 -0.168 -0.168 0.309 0.309 0 0 1 0 -0.238l0.137 -0.332a0.313 0.313 0 0 1 0.407 -0.168c0.041 0.017 0.07 0 0.087 -0.017 0.018 -0.018 0.034 -0.046 0.018 -0.088a0.311 0.311 0 0 1 0.168 -0.407l0.332 -0.137a0.313 0.313 0 0 1 0.407 0.168 0.074 0.074 0 0 0 0.074 0.049 0.074 0.074 0 0 0 0.074 -0.049 0.311 0.311 0 0 1 0.407 -0.169l0.332 0.137a0.311 0.311 0 0 1 0.169 0.407 0.074 0.074 0 0 0 0.017 0.087c0.018 0.018 0.046 0.034 0.087 0.018a0.311 0.311 0 0 1 0.407 0.169l0.137 0.332a0.311 0.311 0 0 1 -0.169 0.407 0.074 0.074 0 0 0 -0.049 0.074c0 0.024 0.009 0.057 0.05 0.074 0.077 0.032 0.137 0.092 0.168 0.169a0.309 0.309 0 0 1 0 0.238l-0.137 0.332a0.311 0.311 0 0 1 -0.407 0.168 0.074 0.074 0 0 0 -0.087 0.017 0.074 0.074 0 0 0 -0.017 0.087 0.311 0.311 0 0 1 -0.168 0.407l-0.332 0.137q-0.059 0.023 -0.12 0.023m-0.361 -0.443a0.277 0.277 0 0 1 0.259 0.173 0.11 0.11 0 0 0 0.145 0.06l0.332 -0.137a0.111 0.111 0 0 0 0.06 -0.145 0.277 0.277 0 0 1 0.061 -0.306 0.277 0.277 0 0 1 0.306 -0.061 0.109 0.109 0 0 0 0.145 -0.06l0.137 -0.332a0.109 0.109 0 0 0 0 -0.084 0.109 0.109 0 0 0 -0.06 -0.06 0.277 0.277 0 0 1 -0.173 -0.259c0 -0.091 0.045 -0.207 0.173 -0.259a0.11 0.11 0 0 0 0.06 -0.145l-0.137 -0.332a0.11 0.11 0 0 0 -0.145 -0.06 0.277 0.277 0 0 1 -0.306 -0.061 0.277 0.277 0 0 1 -0.061 -0.306 0.109 0.109 0 0 0 -0.06 -0.145l-0.332 -0.137a0.109 0.109 0 0 0 -0.145 0.06c-0.053 0.128 -0.169 0.173 -0.259 0.173s-0.207 -0.045 -0.259 -0.173a0.111 0.111 0 0 0 -0.145 -0.06l-0.332 0.137a0.11 0.11 0 0 0 -0.06 0.145 0.277 0.277 0 0 1 -0.061 0.306 0.277 0.277 0 0 1 -0.306 0.061 0.111 0.111 0 0 0 -0.145 0.06l-0.137 0.332a0.109 0.109 0 0 0 0 0.084c0.011 0.027 0.032 0.049 0.06 0.06a0.277 0.277 0 0 1 0.173 0.26 0.277 0.277 0 0 1 -0.173 0.259l-0.038 -0.093 0.038 0.093a0.111 0.111 0 0 0 -0.06 0.145l0.137 0.332c0.023 0.056 0.089 0.083 0.145 0.06a0.277 0.277 0 0 1 0.306 0.061 0.277 0.277 0 0 1 0.061 0.306c-0.023 0.056 0.004 0.121 0.06 0.145l0.332 0.137c0.056 0.023 0.121 -0.004 0.145 -0.06a0.277 0.277 0 0 1 0.26 -0.173m0 -0.528c-0.377 0 -0.683 -0.306 -0.683 -0.683s0.306 -0.683 0.683 -0.683 0.683 0.306 0.683 0.683 -0.306 0.683 -0.683 0.683m0 -1.165c-0.266 0 -0.482 0.216 -0.482 0.482s0.216 0.482 0.482 0.482 0.482 -0.216 0.482 -0.482 -0.216 -0.482 -0.482 -0.482" style="stroke: none; stroke-width: 1; stroke-dasharray: none; stroke-linecap: butt; stroke-linejoin: miter; stroke-miterlimit: 10; fill: rgb(0,0,0); fill-rule: nonzero; opacity: 1;" transform="translate(-1.944 -1.944)scale(3.89)" stroke-linecap="round"/></g></svg>