<svg xmlns="http://www.w3.org/2000/svg" viewBox="0 0 100 100" width="100" height="100"><path fill="#f89939" d="M76.703 68.852c12.211 -12.203 14.242 -29.969 4.531 -39.672s-27.477 -7.672 -39.688 4.531 -8.68 35.531 -4.531 39.672c3.352 3.352 27.477 7.672 39.688 -4.531"/><path fill="#3499cd" d="M26.594 51.219c-7.086 -7.078 -17.398 -8.258 -23.031 -2.633 -5.633 5.633 -4.453 15.937 2.633 23.016 7.086 7.086 20.625 5.031 23.031 2.633 1.945 -1.945 4.461 -15.937 -2.633 -23.016"/><path fill="#010101" d="M96.734 66.938c-0.453 0 -0.68 -0.273 -0.68 -0.828 0 -0.414 0.273 -1.32 0.813 -2.703 0.789 -2.023 1.188 -3.477 1.188 -4.359 0 -0.531 -0.156 -0.977 -0.469 -1.328s-0.703 -0.531 -1.172 -0.531c-0.688 0 -1.477 0.32 -2.367 0.969s-2.086 1.812 -3.594 3.5c0.219 -1.094 0.688 -2.594 1.391 -4.5l-3.367 0.648q-1.148 2.484 -1.664 4.477c-0.172 0.648 -0.297 1.32 -0.383 2 -1.055 1.023 -1.742 1.641 -2.039 1.867 -0.305 0.227 -0.625 0.336 -0.953 0.336 -0.305 0 -0.547 -0.117 -0.727 -0.344s-0.266 -0.539 -0.266 -0.922q0 -0.621 0.234 -1.43c0.234 -0.809 0.5 -1.555 1.039 -3.047l1.281 -3.531 -1.258 0.055c-1.141 2.172 -2.477 3.344 -4.008 3.508 0.414 -1.078 0.625 -1.906 0.625 -2.484q0 -1.102 -1.078 -1.102c-0.852 0 -1.516 0.398 -1.992 1.203Q76.563 59.598 76.563 60.664c0 1.066 0.398 1.211 1.188 1.563 -0.516 0.758 -1.094 1.469 -1.719 2.141 -0.742 0.734 -1.32 1.297 -1.742 1.664 -0.43 0.383 -0.828 0.57 -1.188 0.57 -0.563 0 -0.844 -0.398 -0.844 -1.188s0.313 -2.148 0.938 -4.18l1.219 -4.047h-0.773l-2.82 1.563c-0.461 -1.055 -1.266 -1.586 -2.414 -1.586 -0.914 0 -1.961 0.391 -3.148 1.164s-2.164 1.781 -2.922 3.039c-0.586 0.969 -0.945 1.984 -1.078 3.031 -1.063 1.063 -1.859 1.75 -2.391 2.07 -0.555 0.328 -1.133 0.492 -1.742 0.492q-2.332 0 -2.883 -2.695c4.055 -1.188 6.078 -2.734 6.078 -4.641 0 -0.719 -0.258 -1.297 -0.773 -1.742s-1.203 -0.664 -2.055 -0.664q-2.473 0 -4.5 2.367c-1.227 1.43 -1.891 3.016 -2.008 4.758 -1.117 1.102 -1.961 1.828 -2.508 2.18 -0.563 0.359 -1.094 0.539 -1.586 0.539s-0.883 -0.234 -1.172 -0.703c-0.297 -0.469 -0.445 -1.102 -0.445 -1.906 0 -0.359 0.039 -1.016 0.109 -1.977 1.844 -2 3.195 -3.875 4.063 -5.633s1.297 -3.578 1.297 -5.453c0 -0.664 -0.086 -1.188 -0.258 -1.578q-0.258 -0.586 -0.656 -0.586c-0.055 0 -0.141 0.016 -0.25 0.055l-3.508 1.297c-1.195 2.281 -2.219 4.773 -3.055 7.484 -0.836 2.703 -1.258 5.023 -1.258 6.953 0 1.289 0.297 2.313 0.906 3.078 0.602 0.766 1.398 1.148 2.383 1.148 0.859 0 1.758 -0.273 2.703 -0.82s2.039 -1.398 3.297 -2.547 0 -0.016 0 -0.016c0.148 0.867 0.508 1.594 1.07 2.188 0.773 0.797 1.781 1.203 3.031 1.203 1.125 0 2.148 -0.273 3.078 -0.82 0.898 -0.523 1.906 -1.344 3.031 -2.43 0.094 0.813 0.359 1.516 0.805 2.117 0.57 0.758 1.258 1.141 2.063 1.141s1.633 -0.313 2.414 -0.938 1.625 -1.602 2.547 -2.914c-0.086 2.57 0.602 3.852 2.055 3.852 0.578 0 1.188 -0.211 1.82 -0.633s1.688 -1.336 3.164 -2.734c1.281 -1.266 2.219 -2.453 2.82 -3.562 0.813 -0.141 1.555 -0.383 2.234 -0.734 -1.391 2.18 -2.086 3.922 -2.086 5.219 0 0.703 0.195 1.289 0.578 1.758s0.859 0.711 1.422 0.711c1.227 0 2.969 -1.102 5.219 -3.281 0 0.172 -0.016 0.336 -0.016 0.508 0 0.609 0.055 1.531 0.148 2.773l3.055 -0.719c0 -0.828 0.016 -1.484 0.039 -1.977 0.047 -0.656 0.141 -1.375 0.273 -2.156q0.129 -0.691 0.633 -1.313l0.773 -0.898c0.281 -0.328 0.555 -0.625 0.797 -0.883q0.434 -0.457 0.773 -0.773c0.258 -0.227 0.484 -0.414 0.68 -0.539 0.211 -0.125 0.383 -0.195 0.508 -0.195 0.227 0 0.344 0.148 0.344 0.445s-0.219 0.984 -0.648 2.07c-0.813 2.023 -1.219 3.531 -1.219 4.516 0 0.727 0.188 1.305 0.57 1.742 0.375 0.43 0.875 0.648 1.492 0.648 1.516 0 3.344 -1.125 5.469 -3.367V64.297c-1.508 1.773 -2.594 2.664 -3.266 2.664Zm-50.984 -6.477c0.625 -3.055 1.266 -5.422 1.914 -7.117s1.148 -2.547 1.484 -2.547c0.156 0 0.289 0.102 0.391 0.313 0.102 0.203 0.148 0.484 0.148 0.82 0 1.164 -0.359 2.547 -1.094 4.164 -0.727 1.609 -1.68 3.07 -2.844 4.367m9.211 -0.766c0.555 -0.93 1.133 -1.391 1.742 -1.391 0.641 0 0.969 0.445 0.969 1.328 0 1.789 -1.18 3.008 -3.539 3.672 0 -1.484 0.273 -2.688 0.828 -3.609m13.656 4.57c-0.813 1.57 -1.688 2.352 -2.602 2.352 -0.375 0 -0.688 -0.156 -0.93 -0.461s-0.367 -0.711 -0.367 -1.211c0 -1.313 0.414 -2.758 1.234 -4.32s1.695 -2.344 2.617 -2.344c0.383 0 0.695 0.141 0.922 0.438 0.227 0.289 0.344 0.695 0.344 1.211 0 1.328 -0.406 2.773 -1.219 4.344Z"/><path fill="#fff" d="M58.953 50.688c0.117 0.164 0.172 0.375 0.172 0.625s-0.07 0.477 -0.211 0.688 -0.344 0.383 -0.617 0.5c-0.266 0.117 -0.57 0.18 -0.906 0.18 -0.563 0 -0.984 -0.117 -1.281 -0.352s-0.484 -0.578 -0.563 -1.039l0.727 -0.117c0.039 0.289 0.156 0.516 0.336 0.664 0.188 0.156 0.445 0.234 0.781 0.234s0.586 -0.07 0.75 -0.203 0.242 -0.297 0.242 -0.484c0 -0.164 -0.07 -0.297 -0.219 -0.391 -0.102 -0.063 -0.352 -0.148 -0.75 -0.25 -0.539 -0.133 -0.906 -0.25 -1.117 -0.352s-0.367 -0.234 -0.469 -0.414 -0.164 -0.367 -0.164 -0.578c0 -0.195 0.047 -0.367 0.133 -0.531s0.211 -0.297 0.359 -0.406c0.117 -0.086 0.266 -0.156 0.461 -0.211s0.406 -0.086 0.633 -0.086c0.336 0 0.633 0.047 0.891 0.148 0.258 0.094 0.445 0.227 0.57 0.398 0.125 0.164 0.203 0.391 0.25 0.672l-0.719 0.094c-0.031 -0.219 -0.125 -0.398 -0.281 -0.523s-0.375 -0.188 -0.664 -0.188c-0.336 0 -0.578 0.055 -0.719 0.164s-0.219 0.242 -0.219 0.391c0 0.094 0.031 0.18 0.086 0.258 0.063 0.078 0.156 0.141 0.281 0.195 0.07 0.023 0.289 0.086 0.648 0.188 0.516 0.141 0.875 0.25 1.086 0.336 0.203 0.086 0.367 0.219 0.484 0.383Zm3.492 1.125c-0.195 0.18 -0.43 0.266 -0.719 0.266 -0.359 0 -0.648 -0.133 -0.867 -0.391s-0.336 -0.688 -0.336 -1.266 0.117 -0.992 0.344 -1.25 0.531 -0.398 0.898 -0.398c0.242 0 0.453 0.07 0.625 0.219s0.289 0.367 0.359 0.656l0.711 -0.109c-0.086 -0.438 -0.273 -0.773 -0.57 -1.008q-0.445 -0.352 -1.148 -0.352c-0.375 0 -0.711 0.086 -1.031 0.266 -0.313 0.172 -0.555 0.438 -0.703 0.789 -0.156 0.352 -0.234 0.758 -0.234 1.227 0 0.719 0.18 1.273 0.539 1.656s0.836 0.578 1.422 0.578q0.703 0 1.195 -0.422c0.32 -0.281 0.523 -0.672 0.602 -1.164l-0.719 -0.094c-0.055 0.367 -0.172 0.633 -0.367 0.813Zm1.711 0.766h0.734v-4.313h-0.734zm0 -5.117h0.734v-0.844h-0.734zm5.258 0.797h-0.945l-1.734 1.758v-3.398h-0.734v5.953h0.734V50.859l0.516 -0.492 1.43 2.203h0.906l-1.82 -2.711zm0.75 -0.797h0.734v-0.844h-0.734zm0 5.117h0.734v-4.313h-0.734zm3.445 -0.656c-0.133 0.016 -0.242 0.031 -0.32 0.031 -0.109 0 -0.195 -0.016 -0.25 -0.055s-0.102 -0.086 -0.125 -0.141c-0.023 -0.063 -0.039 -0.195 -0.039 -0.398v-2.523h0.734v-0.57h-0.734v-1.508l-0.727 0.438v1.07h-0.539v0.57h0.539v2.484c0 0.438 0.031 0.727 0.086 0.859q0.094 0.211 0.305 0.328c0.148 0.086 0.352 0.125 0.617 0.125 0.164 0 0.344 -0.023 0.555 -0.063l-0.109 -0.648Z"/></svg>