<svg xmlns="http://www.w3.org/2000/svg" fill="none" viewBox="0 0 100 100" id="Sequelize--Streamline-Svg-Logos" height="100" width="100">
  <desc>
    Sequelize Streamline Icon: https://streamlinehq.com
  </desc>
  <path fill="#2f406a" d="M80.1175 32.26729166666667v35.27312500000001L50.14489583333334 85.27333333333333l-0.2710416666666667 0.24645833333333336v13.183229166666669l0.2710416666666667 0.2554166666666667 42.211979166666666 -24.3828125V25.4246875l-0.39875 -0.09760416666666667 -11.900520833333335 6.653229166666668 0.05989583333333334 0.28697916666666673Z" stroke-width="1.0417"></path>
  <path fill="#2379bd" d="M20.07541666666667 67.82885416666667 50.144375000000004 85.27291666666667v13.685104166666669l-42.501250000000006 -24.479166666666668v-48.958333333333336l0.4361458333333334 -0.06583333333333334 11.866145833333334 6.898854166666666 0.13 0.3951041666666667v35.08020833333334Z" stroke-width="1.0417"></path>
  <path fill="#03afef" d="M20.07541666666667 32.748958333333334 7.643125 25.520833333333336 50.048125000000006 1.0416666666666667l42.30833333333334 24.382916666666667 -12.239479166666667 6.842500000000001 -30.068854166666668 -17.1546875L20.07541666666667 32.748958333333334Z" stroke-width="1.0417"></path>
  <path fill="#2f406a" d="m49.628750000000004 63.794791666666676 -0.32552083333333337 -0.3321875V50.2175l0.32552083333333337 -0.168125 0.07916666666666668 -0.32656250000000003 11.355208333333334 -6.623854166666668 0.3473958333333334 0.0778125v13.647395833333334L49.628750000000004 63.794791666666676Z" stroke-width="1.0417"></path>
  <path fill="#2379bd" d="M37.65 57.2496875V43.0790625l0.32927083333333335 -0.01625 11.550833333333335 6.7221875 0.09822916666666667 0.2646875v13.745416666666669L37.65 57.2496875Z" stroke-width="1.0417"></path>
  <path fill="#03afef" d="M49.43177083333334 36.1084375 37.65 43.079375000000006l11.978333333333333 6.970625 11.781770833333333 -6.8727083333333345 -11.978333333333333 -7.068854166666667Z" stroke-width="1.0417"></path>
  <path fill="#2f406a" d="m34.96625 72.4353125 -0.3252083333333333 -0.3321875V58.857708333333335l0.3252083333333333 -0.16770833333333335 0.07947916666666668 -0.32666666666666666 11.354895833333334 -6.623854166666668 0.3473958333333334 0.0778125v13.647083333333335l-11.781770833333333 6.970937500000001Z" stroke-width="1.0417"></path>
  <path fill="#2379bd" d="M22.988333333333333 65.88958333333333V51.71854166666667l0.3289583333333334 -0.016145833333333335 11.550833333333335 6.722395833333334 0.09822916666666667 0.26479166666666665v13.745416666666669L22.988333333333333 65.88958333333333Z" stroke-width="1.0417"></path>
  <path fill="#03afef" d="m34.77010416666667 44.7484375 -11.781770833333333 6.970625 11.978020833333336 6.971041666666667 11.781770833333333 -6.8727083333333345 -11.978020833333336 -7.068958333333334Z" stroke-width="1.0417"></path>
  <path fill="#2f406a" d="m65.3371875 72.76239583333334 -0.325625 -0.3321875V59.18479166666667l0.325625 -0.1678125 0.07916666666666668 -0.32656250000000003 11.355208333333334 -6.623854166666668 0.3473958333333334 0.07770833333333334v13.647187500000001l-11.781770833333333 6.970937500000001Z" stroke-width="1.0417"></path>
  <path fill="#2379bd" d="M53.35947916666667 66.21760416666667V52.04666666666667l0.32927083333333335 -0.01625 11.550729166666667 6.7225 0.09833333333333334 0.2646875v13.745416666666669l-11.978333333333333 -6.545416666666667Z" stroke-width="1.0417"></path>
  <path fill="#03afef" d="m65.14125000000001 45.075520833333336 -11.781770833333333 6.970625 11.978333333333333 6.970937500000001 11.781770833333333 -6.8727083333333345 -11.978333333333333 -7.068854166666667Z" stroke-width="1.0417"></path>
  <path fill="#2f406a" d="m50.67572916666667 81.40239583333333 -0.32531250000000006 -0.3321875V67.82479166666667l0.32531250000000006 -0.16770833333333335 0.07937500000000001 -0.3269791666666667 11.3553125 -6.623541666666667 0.34708333333333335 0.0778125v13.647083333333335l-11.781770833333333 6.970937500000001Z" stroke-width="1.0417"></path>
  <path fill="#2379bd" d="M38.69677083333333 74.85708333333334V60.686145833333335l0.3289583333333334 -0.016145833333333335 11.551145833333335 6.722083333333334 0.09791666666666668 0.2651041666666667v13.7453125l-11.978020833333336 -6.545416666666667Z" stroke-width="1.0417"></path>
  <path fill="#03afef" d="m50.47854166666667 53.715 -11.781770833333333 6.970937500000001 11.978020833333336 6.971041666666667 11.781770833333333 -6.8727083333333345 -11.978020833333336 -7.069270833333334Z" stroke-width="1.0417"></path>
  <path fill="#2f406a" d="m49.628750000000004 45.009687500000005 -0.32552083333333337 -0.3325V31.43208333333334l0.32552083333333337 -0.16770833333333335 0.07916666666666668 -0.3269791666666667 11.355208333333334 -6.623541666666667 0.3473958333333334 0.0778125v13.647083333333335l-11.781770833333333 6.970937500000001Z" stroke-width="1.0417"></path>
  <path fill="#2379bd" d="M37.65 38.464375000000004V24.293437500000003l0.32927083333333335 -0.016145833333333335 11.550833333333335 6.722083333333334 0.09822916666666667 0.2651041666666667v13.7453125L37.65 38.464375000000004Z" stroke-width="1.0417"></path>
  <path fill="#03afef" d="M49.43177083333334 17.32229166666667 37.65 24.29322916666667l11.978333333333333 6.971041666666667 11.781770833333333 -6.8727083333333345 -11.978333333333333 -7.069270833333334Z" stroke-width="1.0417"></path>
  <path fill="#2f406a" d="m34.96625 53.650312500000005 -0.3252083333333333 -0.3322916666666667V40.07302083333334l0.3252083333333333 -0.168125 0.07947916666666668 -0.32666666666666666 11.354895833333334 -6.623854166666668 0.3473958333333334 0.0778125v13.647395833333334l-11.781770833333333 6.9707291666666675Z" stroke-width="1.0417"></path>
  <path fill="#2379bd" d="M22.988333333333333 47.104062500000005V32.93354166666667l0.3289583333333334 -0.01625 11.550833333333335 6.722083333333334 0.09822916666666667 0.26479166666666665v13.745416666666669l-11.978020833333336 -6.545520833333334Z" stroke-width="1.0417"></path>
  <path fill="#03afef" d="m34.77010416666667 25.962812500000002 -11.781770833333333 6.971041666666667 11.978020833333336 6.970625 11.781770833333333 -6.8727083333333345 -11.978020833333336 -7.068958333333334Z" stroke-width="1.0417"></path>
  <path fill="#2f406a" d="m65.3371875 53.977291666666666 -0.325625 -0.3321875V40.4l0.325625 -0.168125 0.07916666666666668 -0.32656250000000003 11.355208333333334 -6.623854166666668 0.3473958333333334 0.07770833333333334v13.6475l-11.781770833333333 6.970625Z" stroke-width="1.0417"></path>
  <path fill="#2379bd" d="M53.35947916666667 47.43114583333334V33.26052083333334l0.32927083333333335 -0.016145833333333335 11.550729166666667 6.722083333333334 0.09833333333333334 0.2646875v13.745416666666669l-11.978333333333333 -6.545416666666667Z" stroke-width="1.0417"></path>
  <path fill="#03afef" d="m65.14125000000001 26.289895833333333 -11.781770833333333 6.970937500000001 11.978333333333333 6.970625 11.781770833333333 -6.872604166666667 -11.978333333333333 -7.068958333333334Z" stroke-width="1.0417"></path>
  <path fill="#2f406a" d="m50.67572916666667 62.61687500000001 -0.32531250000000006 -0.3322916666666667V49.03916666666667l0.32531250000000006 -0.16770833333333335 0.07937500000000001 -0.32666666666666666 11.3553125 -6.623854166666668 0.34708333333333335 0.0778125V55.645833333333336l-11.781770833333333 6.971041666666667Z" stroke-width="1.0417"></path>
  <path fill="#2379bd" d="M38.69677083333333 56.0715625V41.90052083333334l0.3289583333333334 -0.016145833333333335 11.551145833333335 6.7225 0.09791666666666668 0.2646875v13.745416666666669l-11.978020833333336 -6.545416666666667Z" stroke-width="1.0417"></path>
  <path fill="#03afef" d="m50.47854166666667 34.92937500000001 -11.781770833333333 6.971041666666667 11.978020833333336 6.970937500000001 11.781770833333333 -6.8727083333333345 -11.978020833333336 -7.069270833333334Z" stroke-width="1.0417"></path>
</svg>