<svg width="100px" height="100px" viewBox="0 -0.125 32 32" version="1.1" xmlns="http://www.w3.org/2000/svg" xmlns:xlink="http://www.w3.org/1999/xlink" preserveAspectRatio="xMidYMid"><defs><path d="M22.604 31.576a1.984 1.984 0 0 0 1.581 -0.061l6.563 -3.158a1.992 1.992 0 0 0 1.128 -1.796V5.15a1.992 1.992 0 0 0 -1.128 -1.795l-6.563 -3.158a1.985 1.985 0 0 0 -2.264 0.386L9.357 12.044l-5.473 -4.154a1.327 1.327 0 0 0 -1.695 0.075L0.434 9.562c-0.579 0.526 -0.579 1.437 -0.002 1.964l4.746 4.33 -4.746 4.33c-0.578 0.527 -0.577 1.438 0.002 1.964l1.755 1.597a1.327 1.327 0 0 0 1.695 0.075l5.473 -4.154 12.563 11.462a1.981 1.981 0 0 0 0.683 0.446m1.308 -22.956 -9.533 7.236 9.533 7.236z" id="path-1"/><path x1="50.0000484%" y1="-3.91645412e-07%" x2="50.0000484%" y2="99.999921%" id="linearGradient-3" d=""><stop stop-color="#FFFFFF" offset="0%"/><stop stop-color="#FFFFFF" stop-opacity="0" offset="100%"/></path></defs><g><mask id="mask-2" fill="white"><use xlink:href="#path-1"/></mask><g/><path d="M30.767 3.359 24.199 0.197a1.986 1.986 0 0 0 -2.265 0.385L0.433 20.185c-0.578 0.527 -0.578 1.438 0.002 1.964l1.756 1.597a1.328 1.328 0 0 0 1.696 0.075L29.779 4.179c0.869 -0.659 2.116 -0.039 2.116 1.051v-0.076a1.992 1.992 0 0 0 -1.128 -1.795" fill="#0065A9" fill-rule="nonzero" mask="url(#mask-2)"/><path d="m30.767 28.352 -6.568 3.162a1.986 1.986 0 0 1 -2.265 -0.385L0.433 11.526c-0.578 -0.527 -0.578 -1.438 0.002 -1.964l1.756 -1.597a1.328 1.328 0 0 1 1.696 -0.075l25.892 19.642c0.869 0.659 2.116 0.039 2.116 -1.051v0.076a1.992 1.992 0 0 1 -1.128 1.795" fill="#007ACC" fill-rule="nonzero" mask="url(#mask-2)"/><path d="M24.178 31.517a1.986 1.986 0 0 1 -2.266 -0.385c0.735 0.735 1.992 0.214 1.992 -0.825V1.409c0 -1.04 -1.257 -1.56 -1.992 -0.825a1.986 1.986 0 0 1 2.266 -0.386l6.567 3.158a1.992 1.992 0 0 1 1.129 1.795V26.564c0 0.766 -0.439 1.464 -1.129 1.795z" fill="#1F9CF0" fill-rule="nonzero" mask="url(#mask-2)"/><path d="M22.604 31.576a1.984 1.984 0 0 0 1.581 -0.061l6.563 -3.158a1.992 1.992 0 0 0 1.128 -1.795V5.15a1.992 1.992 0 0 0 -1.128 -1.795L24.185 0.196a1.985 1.985 0 0 0 -2.264 0.386L9.357 12.044l-5.473 -4.154a1.327 1.327 0 0 0 -1.695 0.075L0.434 9.562c-0.579 0.526 -0.579 1.437 -0.002 1.964l4.746 4.33 -4.746 4.33c-0.578 0.527 -0.577 1.438 0.002 1.964l1.755 1.597a1.327 1.327 0 0 0 1.695 0.075l5.473 -4.154 12.563 11.462a1.988 1.988 0 0 0 0.683 0.446m1.308 -22.956 -9.533 7.236 9.533 7.236z" fill-opacity="0.25" fill="url(#linearGradient-3)" mask="url(#mask-2)"/></g></svg>